<?xml version="1.0" encoding="UTF-8" standalone="no"?>
<svg
   role="img"
   viewBox="0 0 24 24"
   version="1.1"
   id="svg6"
   sodipodi:docname="c_dark.svg"
   inkscape:version="1.1.2 (b8e25be833, 2022-02-05)"
   xmlns:inkscape="http://www.inkscape.org/namespaces/inkscape"
   xmlns:sodipodi="http://sodipodi.sourceforge.net/DTD/sodipodi-0.dtd"
   xmlns="http://www.w3.org/2000/svg"
   xmlns:svg="http://www.w3.org/2000/svg"
   xmlns:rdf="http://www.w3.org/1999/02/22-rdf-syntax-ns#"
   xmlns:cc="http://creativecommons.org/ns#"
   xmlns:dc="http://purl.org/dc/elements/1.1/">
  <defs
     id="defs10" />
  <sodipodi:namedview
     id="namedview8"
     pagecolor="#505050"
     bordercolor="#eeeeee"
     borderopacity="1"
     inkscape:pageshadow="0"
     inkscape:pageopacity="0"
     inkscape:pagecheckerboard="0"
     showgrid="false"
     inkscape:zoom="34.625"
     inkscape:cx="12"
     inkscape:cy="11.98556"
     inkscape:window-width="1920"
     inkscape:window-height="1017"
     inkscape:window-x="1912"
     inkscape:window-y="-8"
     inkscape:window-maximized="1"
     inkscape:current-layer="svg6" />
  <title
     id="title2">C</title>
  <path
     d="M16.5921 9.1962s-.354-3.298-3.627-3.39c-3.2741-.09-4.9552 2.474-4.9552 6.14 0 3.6651 1.858 6.5972 5.0451 6.5972 3.184 0 3.5381-3.665 3.5381-3.665l6.1041.365s.36 3.31-2.196 5.836c-2.552 2.5241-5.6901 2.9371-7.8762 2.9201-2.19-.017-5.2261.034-8.1602-2.97-2.938-3.0101-3.436-5.9302-3.436-8.8002 0-2.8701.556-6.6702 4.047-9.5502C7.444.72 9.849 0 12.254 0c10.0422 0 10.7172 9.2602 10.7172 9.2602z"
     id="path4" />
  <path
     style="fill:#ffffff;stroke-width:0.0288809"
     d="M 11.172676,23.956926 C 8.3595988,23.806573 6.3234582,22.907251 4.461511,20.99274 2.5442807,19.021385 1.4913715,16.910294 1.1719339,14.397112 1.0708315,13.601687 1.0458856,13.0362 1.0624373,11.914985 1.0812299,10.641971 1.144254,9.991838 1.3452714,8.9973742 1.9264431,6.1222284 3.4120117,3.8505308 5.8483755,2.1113306 7.2312895,1.1241362 8.6542799,0.50014801 10.194946,0.20533824 c 1.14723,-0.219525 2.551012,-0.2464546 3.89956,-0.0748076 2.990385,0.38062458 5.347143,1.74133686 6.932759,4.00274126 0.858695,1.2246706 1.489605,2.7316621 1.800192,4.2999411 0.04719,0.2382671 0.09482,0.5226027 0.105854,0.6318565 l 0.02006,0.1986437 -0.328671,-0.017691 c -0.180769,-0.00973 -1.543833,-0.024733 -3.029031,-0.03334 -1.485199,-0.00861 -2.765784,-0.022389 -2.845746,-0.030626 L 16.604537,9.1670778 16.553156,8.915669 C 16.394489,8.1393155 16.014087,7.3881577 15.517802,6.8712156 14.847155,6.1726536 14.071128,5.8430553 12.99639,5.8003073 10.708098,5.7092901 9.0583004,6.9471607 8.3518287,9.2851986 7.8733698,10.868638 7.8789248,12.973702 8.365916,14.623592 c 0.4776675,1.618302 1.3938772,2.821987 2.62906,3.453972 0.918459,0.469932 2.140284,0.607469 3.055372,0.343932 1.040006,-0.299512 1.855631,-1.162517 2.291741,-2.42487 0.105968,-0.306733 0.249969,-0.902279 0.249969,-1.033799 v -0.07715 l 0.209386,0.01677 c 0.22699,0.01818 1.693452,0.105716 4.108303,0.245228 0.841878,0.04864 1.587596,0.09565 1.657152,0.104474 l 0.126466,0.01604 -0.01546,0.625831 c -0.02102,0.850881 -0.132428,1.49256 -0.393701,2.267582 -0.228313,0.677252 -0.460825,1.15322 -0.855737,1.75175 -0.301413,0.456824 -0.605653,0.819271 -1.047073,1.247399 -1.618206,1.569481 -3.648689,2.473613 -6.186448,2.754698 -0.485785,0.05381 -2.320464,0.07898 -3.02227,0.04147 z"
     id="path86" />
  <metadata
     id="metadata125">
    <rdf:RDF>
      <cc:Work
         rdf:about="">
        <dc:title>C</dc:title>
      </cc:Work>
    </rdf:RDF>
  </metadata>
</svg>
