<?xml version="1.0" encoding="UTF-8" standalone="no"?>
<svg
   role="img"
   viewBox="0 0 24 24"
   version="1.1"
   id="svg6"
   sodipodi:docname="c_dark.svg"
   inkscape:version="1.1.2 (b8e25be833, 2022-02-05)"
   xmlns:inkscape="http://www.inkscape.org/namespaces/inkscape"
   xmlns:sodipodi="http://sodipodi.sourceforge.net/DTD/sodipodi-0.dtd"
   xmlns="http://www.w3.org/2000/svg"
   xmlns:svg="http://www.w3.org/2000/svg"
   xmlns:rdf="http://www.w3.org/1999/02/22-rdf-syntax-ns#"
   xmlns:cc="http://creativecommons.org/ns#"
   xmlns:dc="http://purl.org/dc/elements/1.1/">
  <defs
     id="defs10" />
  <sodipodi:namedview
     id="namedview8"
     pagecolor="#505050"
     bordercolor="#eeeeee"
     borderopacity="1"
     inkscape:pageshadow="0"
     inkscape:pageopacity="0"
     inkscape:pagecheckerboard="0"
     showgrid="false"
     inkscape:zoom="5.6568543"
     inkscape:cx="0.088388347"
     inkscape:cy="16.440233"
     inkscape:window-width="1920"
     inkscape:window-height="1017"
     inkscape:window-x="-8"
     inkscape:window-y="-8"
     inkscape:window-maximized="1"
     inkscape:current-layer="svg6" />
  <title
     id="title2">C</title>
  <circle
     style="fill:none;stroke:#000000;stroke-width:0.990443;stroke-miterlimit:4;stroke-dasharray:none;stroke-opacity:1"
     id="path31"
     cx="12"
     cy="11.989168"
     r="17.004778" />
  <path
     d="M16.5921 9.1962s-.354-3.298-3.627-3.39c-3.2741-.09-4.9552 2.474-4.9552 6.14 0 3.6651 1.858 6.5972 5.0451 6.5972 3.184 0 3.5381-3.665 3.5381-3.665l6.1041.365s.36 3.31-2.196 5.836c-2.552 2.5241-5.6901 2.9371-7.8762 2.9201-2.19-.017-5.2261.034-8.1602-2.97-2.938-3.0101-3.436-5.9302-3.436-8.8002 0-2.8701.556-6.6702 4.047-9.5502C7.444.72 9.849 0 12.254 0c10.0422 0 10.7172 9.2602 10.7172 9.2602z"
     id="path4" />
  <path
     style="fill:#ffffff;stroke-width:0.0288809"
     d="M 11.172676,23.956926 C 8.3595988,23.806573 6.3234582,22.907251 4.461511,20.99274 2.5442807,19.021385 1.4913715,16.910294 1.1719339,14.397112 1.0708315,13.601687 1.0458856,13.0362 1.0624373,11.914985 1.0812299,10.641971 1.144254,9.991838 1.3452714,8.9973742 1.9264431,6.1222284 3.4120117,3.8505308 5.8483755,2.1113306 7.2312895,1.1241362 8.6542799,0.50014801 10.194946,0.20533824 c 1.14723,-0.219525 2.551012,-0.2464546 3.89956,-0.0748076 2.990385,0.38062458 5.347143,1.74133686 6.932759,4.00274126 0.858695,1.2246706 1.489605,2.7316621 1.800192,4.2999411 0.04719,0.2382671 0.09482,0.5226027 0.105854,0.6318565 l 0.02006,0.1986437 -0.328671,-0.017691 c -0.180769,-0.00973 -1.543833,-0.024733 -3.029031,-0.03334 -1.485199,-0.00861 -2.765784,-0.022389 -2.845746,-0.030626 L 16.604537,9.1670778 16.553156,8.915669 C 16.394489,8.1393155 16.014087,7.3881577 15.517802,6.8712156 14.847155,6.1726536 14.071128,5.8430553 12.99639,5.8003073 10.708098,5.7092901 9.0583004,6.9471607 8.3518287,9.2851986 7.8733698,10.868638 7.8789248,12.973702 8.365916,14.623592 c 0.4776675,1.618302 1.3938772,2.821987 2.62906,3.453972 0.918459,0.469932 2.140284,0.607469 3.055372,0.343932 1.040006,-0.299512 1.855631,-1.162517 2.291741,-2.42487 0.105968,-0.306733 0.249969,-0.902279 0.249969,-1.033799 v -0.07715 l 0.209386,0.01677 c 0.22699,0.01818 1.693452,0.105716 4.108303,0.245228 0.841878,0.04864 1.587596,0.09565 1.657152,0.104474 l 0.126466,0.01604 -0.01546,0.625831 c -0.02102,0.850881 -0.132428,1.49256 -0.393701,2.267582 -0.228313,0.677252 -0.460825,1.15322 -0.855737,1.75175 -0.301413,0.456824 -0.605653,0.819271 -1.047073,1.247399 -1.618206,1.569481 -3.648689,2.473613 -6.186448,2.754698 -0.485785,0.05381 -2.320464,0.07898 -3.02227,0.04147 z"
     id="path86" />
  <metadata
     id="metadata125">
    <rdf:RDF>
      <cc:Work
         rdf:about="">
        <dc:title>C</dc:title>
      </cc:Work>
    </rdf:RDF>
  </metadata>
  <path
     style="fill:#000000;stroke:#000000;stroke-width:0.0577617;stroke-miterlimit:4;stroke-dasharray:none;stroke-opacity:1"
     d="M 10.541516,23.881826 C 8.0195171,23.597328 6.2254506,22.729253 4.4988661,20.958038 3.4633081,19.895711 2.7491364,18.89665 2.1933643,17.732852 1.7188102,16.739125 1.4618082,15.924634 1.2638414,14.787004 1.1100342,13.903139 1.0515109,11.723352 1.1512898,10.594856 1.368504,8.1381736 2.2114461,5.9466039 3.5823348,4.2743682 3.9862938,3.7816116 4.9864072,2.8072686 5.4591005,2.4459621 8.0100141,0.4961532 10.701082,-0.22878102 13.978339,0.15100488 c 3.31799,0.38450626 5.984358,2.09517592 7.533778,4.83346712 0.667263,1.1792548 1.185082,2.6860608 1.381629,4.0204158 l 0.03316,0.2251044 -3.131322,-0.042316 c -1.722226,-0.023273 -3.137759,-0.048698 -3.145629,-0.0565 -0.0079,-0.0078 -0.06528,-0.2134955 -0.127585,-0.4570981 C 16.150752,7.2210796 15.097099,6.1408907 13.776173,5.8587258 13.230096,5.7420772 12.073691,5.771468 11.526817,5.9158949 10.024701,6.3125973 8.9674091,7.3723113 8.4101418,9.0397112 8.1402334,9.8473028 8.0271336,10.513434 7.9884326,11.523466 c -0.1190117,3.106055 1.0265358,5.606828 3.0151774,6.582245 0.629843,0.308934 1.038149,0.408919 1.819495,0.445554 1.150717,0.05395 1.857098,-0.202436 2.581682,-0.937054 0.33623,-0.340887 0.470669,-0.535296 0.703832,-1.017792 0.163744,-0.338846 0.344256,-0.829594 0.417979,-1.136343 l 0.129765,-0.539924 0.610447,0.03708 c 0.335745,0.02039 1.650157,0.100874 2.920916,0.178847 1.270758,0.07797 2.346646,0.141799 2.390862,0.141834 0.06624,5.5e-5 0.07477,0.134763 0.04844,0.765409 -0.07911,1.894504 -0.775145,3.526978 -2.079496,4.877213 -1.477387,1.529358 -3.313248,2.455471 -5.720025,2.885505 -0.569288,0.101718 -3.583617,0.15502 -4.285987,0.07579 z"
     id="path2443" />
  <path
     style="fill:#ffffff;stroke:#000000;stroke-width:0.0577617;stroke-miterlimit:4;stroke-dasharray:none;stroke-opacity:1"
     d="M 10.068006,28.356883 C 7.034441,27.989263 4.1331552,26.774652 1.732852,24.867406 1.0095345,24.292668 -0.28509845,23.008926 -0.83121415,22.32491 -1.8313311,21.072252 -2.914782,19.176179 -3.4258404,17.784234 -5.062201,13.327357 -4.7870808,8.6431896 -2.6431551,4.458322 -1.8500416,2.9101926 -0.89268141,1.6032266 0.37053516,0.34410334 3.1467772,-2.4231428 6.6264889,-4.0551921 10.533546,-4.422537 c 1.005023,-0.094493 2.903503,-0.040238 3.887501,0.1110983 3.491517,0.5369852 6.628083,2.1065484 9.109151,4.55829427 0.919906,0.90903343 1.495029,1.60391703 2.186026,2.64123103 1.335451,2.0047567 2.216415,4.2910233 2.595349,6.735412 0.172423,1.1122544 0.188204,3.4577344 0.03046,4.5281264 -0.295986,2.008519 -0.812679,3.634231 -1.709739,5.379487 -2.519712,4.902166 -7.288919,8.192588 -12.79801,8.829737 -0.924412,0.106912 -2.868217,0.104865 -3.766283,-0.004 z m 4.487951,-4.450235 c 0.397112,-0.05014 0.735018,-0.108127 0.750902,-0.128867 0.01589,-0.02074 0.119856,-0.04291 0.231047,-0.04928 0.284998,-0.0163 1.136036,-0.271173 1.839302,-0.550832 2.010613,-0.799536 3.774123,-2.37745 4.598405,-4.114458 0.264933,-0.558295 0.467808,-1.184298 0.607766,-1.875366 0.136195,-0.672488 0.217653,-1.876534 0.130594,-1.93034 -0.0543,-0.03356 -0.9444,-0.103304 -2.26632,-0.17758 -0.270036,-0.01517 -1.238498,-0.07189 -2.152138,-0.126049 -0.913639,-0.05415 -1.673588,-0.08604 -1.688775,-0.07085 -0.01519,0.01519 -0.09306,0.285714 -0.173055,0.601171 -0.278428,1.098001 -0.887328,2.058366 -1.5916,2.510297 -0.662071,0.424849 -1.492022,0.585687 -2.410563,0.467146 C 10.25375,18.180597 8.6658437,16.36012 8.168294,13.574007 8.0251339,12.772358 8.0252962,11.081646 8.1685828,10.281588 8.3585352,9.2211691 8.7398741,8.2401519 9.2122853,7.5965984 9.5584976,7.1249635 10.167142,6.5983064 10.665809,6.3388713 11.357644,5.9789389 11.924405,5.8598908 12.90972,5.8675385 c 0.452547,0.00351 0.840136,0.032138 0.880131,0.065001 0.03931,0.032298 0.110786,0.043635 0.158844,0.025194 0.04806,-0.018442 0.08738,-0.00835 0.08738,0.022418 0,0.030772 0.03249,0.056203 0.0722,0.056514 0.142112,0.00111 0.655913,0.2765996 0.99712,0.5346357 0.602022,0.4552756 1.162058,1.362456 1.377055,2.2306356 0.05022,0.2027986 0.102272,0.3796852 0.115668,0.3930813 0.0134,0.013397 1.460191,0.040119 3.215099,0.059383 l 3.190742,0.035026 -0.0342,-0.2259414 C 22.950949,8.9392183 22.924519,8.756377 22.911019,8.6571712 22.863309,8.3065852 22.683144,7.5379042 22.64865,7.537791 22.62942,7.5377332 22.6086,7.464463 22.60239,7.3749803 22.58746,7.1598727 22.128362,5.9344836 22.023365,5.8294866 c -0.04518,-0.045207 -0.06699,-0.082194 -0.04843,-0.082194 0.01855,0 -0.06076,-0.1876476 -0.176261,-0.4169941 C 20.416641,2.5859402 17.892769,0.73351422 14.815884,0.20519307 14.466426,0.14518874 14.141516,0.09336832 14.093863,0.09003656 14.046209,0.08670487 13.851264,0.06809201 13.66065,0.04867489 12.416072,-0.07810588 11.108029,-0.02281571 9.9878914,0.20392017 9.3210599,0.33889883 8.3176895,0.65614989 8.3176895,0.73201363 c 0,0.0300232 -0.025684,0.0387139 -0.057076,0.0193126 C 8.1653961,0.69247879 6.9327376,1.3286966 6.2028453,1.8134111 5.3810438,2.3591625 4.54995,3.0455203 4.0133175,3.6216312 3.6184422,4.0455567 2.8761802,5.0037372 2.9136399,5.0411974 2.9246862,5.0522438 2.8711469,5.128804 2.7946634,5.2113311 2.4533227,5.5796436 1.504506,7.8120849 1.4233421,8.4378686 1.4113132,8.5306149 1.3860014,8.6454874 1.3670943,8.6931408 1.3145871,8.8254775 1.1683627,9.6938669 1.0898953,10.33935 c -0.10536898,0.866781 -0.088556,3.139379 0.0297,4.014441 0.281367,2.082045 0.9179544,3.671968 2.116135,5.285198 1.6953894,2.282673 3.7324753,3.664797 6.0927618,4.133824 0.9110919,0.181048 1.3411509,0.212717 2.9747569,0.219055 1.08276,0.0042 1.741972,-0.02074 2.252708,-0.08522 z"
     id="path2556" />
</svg>
