<?xml version="1.0" encoding="UTF-8" standalone="no"?>
<svg
   role="img"
   viewBox="0 0 24 24"
   version="1.1"
   id="svg6"
   sodipodi:docname="cplusplus_dark.svg"
   inkscape:version="1.1.2 (b8e25be833, 2022-02-05)"
   xmlns:inkscape="http://www.inkscape.org/namespaces/inkscape"
   xmlns:sodipodi="http://sodipodi.sourceforge.net/DTD/sodipodi-0.dtd"
   xmlns="http://www.w3.org/2000/svg"
   xmlns:svg="http://www.w3.org/2000/svg"
   xmlns:rdf="http://www.w3.org/1999/02/22-rdf-syntax-ns#"
   xmlns:cc="http://creativecommons.org/ns#"
   xmlns:dc="http://purl.org/dc/elements/1.1/">
  <defs
     id="defs10" />
  <sodipodi:namedview
     id="namedview8"
     pagecolor="#505050"
     bordercolor="#eeeeee"
     borderopacity="1"
     inkscape:pageshadow="0"
     inkscape:pageopacity="0"
     inkscape:pagecheckerboard="0"
     showgrid="false"
     inkscape:zoom="34.625"
     inkscape:cx="12"
     inkscape:cy="11.98556"
     inkscape:window-width="1920"
     inkscape:window-height="1017"
     inkscape:window-x="1912"
     inkscape:window-y="-8"
     inkscape:window-maximized="1"
     inkscape:current-layer="svg6" />
  <title
     id="title2">C++</title>
  <path
     d="M22.394 6c-.167-.29-.398-.543-.652-.69L12.926.22c-.509-.294-1.34-.294-1.848 0L2.26 5.31c-.508.293-.923 1.013-.923 1.6v10.18c0 .294.104.62.271.91.167.29.398.543.652.69l8.816 5.09c.508.293 1.34.293 1.848 0l8.816-5.09c.254-.147.485-.4.652-.69.167-.29.27-.616.27-.91V6.91c.003-.294-.1-.62-.268-.91zM12 19.11c-3.92 0-7.109-3.19-7.109-7.11 0-3.92 3.19-7.11 7.11-7.11a7.133 7.133 0 016.156 3.553l-3.076 1.78a3.567 3.567 0 00-3.08-1.78A3.56 3.56 0 008.444 12 3.56 3.56 0 0012 15.555a3.57 3.57 0 003.08-1.778l3.078 1.78A7.135 7.135 0 0112 19.11zm7.11-6.715h-.79v.79h-.79v-.79h-.79v-.79h.79v-.79h.79v.79h.79zm2.962 0h-.79v.79h-.79v-.79h-.79v-.79h.79v-.79h.79v.79h.79z"
     id="path4" />
  <path
     style="fill:#ffffff;stroke-width:0.0288809"
     d="m 11.570566,23.942943 c -0.10117,-0.02299 -0.263625,-0.07923 -0.36101,-0.124976 C 10.935855,23.6894 2.2726928,18.681049 2.1003172,18.551731 1.8249025,18.345111 1.5329567,17.900717 1.4105664,17.501805 1.359751,17.33618 1.3574007,17.092966 1.3574007,12 c 0,-5.0929661 0.00235,-5.3361802 0.053166,-5.5018051 C 1.5315568,6.1038461 1.833313,5.6436072 2.1012627,5.4447443 2.2663565,5.3222172 10.892607,0.33648266 11.177911,0.19869172 c 0.290291,-0.14019908 0.57008,-0.19326666 0.923172,-0.17509812 0.548492,0.02822295 -0.228018,-0.39245673 7.306859,3.9585419 1.49132,0.8611595 2.483821,1.4517614 2.576089,1.5329386 0.293696,0.2583922 0.578314,0.7776026 0.642236,1.1715876 0.02037,0.1255789 0.03041,1.8732511 0.03055,5.3217763 2.31e-4,5.765717 0.01484,5.37084 -0.215907,5.839937 -0.153882,0.31283 -0.335683,0.549119 -0.541232,0.703445 -0.08382,0.06293 -0.40582,0.260654 -0.715567,0.439391 -0.309748,0.178736 -2.316939,1.337525 -4.460424,2.575087 -2.822456,1.62957 -3.957444,2.270462 -4.115524,2.323906 -0.274115,0.09267 -0.754442,0.117087 -1.037602,0.05274 z m 0.903906,-4.838362 c 0.966835,-0.07071 1.858282,-0.313561 2.707344,-0.737546 0.681195,-0.34016 1.240227,-0.737874 1.781255,-1.267243 0.415192,-0.406246 0.692375,-0.738661 0.999506,-1.198669 0.176311,-0.264073 0.212838,-0.33668 0.183002,-0.363773 -0.03654,-0.03318 -3.044862,-1.775617 -3.065605,-1.775617 -0.0058,0 -0.06325,0.08123 -0.127651,0.180505 -0.166849,0.257211 -0.447527,0.567862 -0.703554,0.778684 -1.412962,1.163488 -3.451941,1.06652 -4.7440759,-0.225615 C 7.9110637,12.901677 8.1865519,10.280541 10.078825,9.0327142 10.463449,8.779081 10.962549,8.5851749 11.446981,8.50117 c 0.318037,-0.055151 0.899064,-0.040492 1.244243,0.031391 0.958685,0.1996447 1.826546,0.7999682 2.309295,1.597403 0.03606,0.05957 0.07149,0.108303 0.07873,0.108303 0.0124,0 2.897021,-1.6636572 3.0362,-1.7510799 L 18.180365,8.4464139 18.03458,8.2113591 C 17.50908,7.3640797 16.625334,6.4874412 15.740678,5.9359073 14.324362,5.0529123 12.517682,4.6963769 10.844765,4.9697337 7.8507365,5.458962 5.4743087,7.8356497 4.9703763,10.844765 c -0.1178472,0.703698 -0.1178472,1.606772 0,2.31047 0.330729,1.974871 1.4609915,3.703231 3.1475706,4.813162 0.9727904,0.640189 2.1634151,1.045225 3.3333171,1.133955 0.431857,0.03275 0.600799,0.03312 1.023208,0.0022 z m 5.850438,-6.310357 v -0.389892 h 0.404332 0.404332 V 12 11.595668 H 18.729242 18.32491 v -0.389892 -0.389892 h -0.404332 -0.404333 v 0.389892 0.389892 H 17.126354 16.736462 V 12 12.404332 h 0.389892 0.389891 v 0.389892 0.389892 h 0.404333 0.404332 z m 2.974729,0 v -0.389892 h 0.389892 0.389891 V 12 11.595668 h -0.389891 -0.389892 v -0.389892 -0.389892 h -0.404332 -0.404332 v 0.389892 0.389892 H 20.086643 19.68231 V 12 12.404332 h 0.404333 0.404332 v 0.389892 0.389892 h 0.404332 0.404332 z"
     id="path86" />
  <path
     style="fill:#000000;stroke-width:0.0288809"
     d="M 11.436823,19.073816 C 10.769904,19.019888 9.9853866,18.833881 9.3718412,18.584214 9.2209386,18.522808 9.0779783,18.468586 9.0541516,18.46372 9.0303246,18.45882 9.0043316,18.44759 8.9963896,18.43868 8.9884496,18.42978 8.8519853,18.3535 8.6931405,18.26917 7.4540534,17.611385 6.3886146,16.545947 5.730828,15.306859 5.646503,15.148014 5.5702236,15.011552 5.5613182,15.00361 5.5524082,14.99571 5.5428312,14.96968 5.5400262,14.94585 5.5372262,14.92202 5.4828882,14.778997 5.4192868,14.628013 5.3556854,14.477028 5.256043,14.191107 5.1978596,13.992632 5.1396763,13.794157 5.0851175,13.612274 5.076618,13.588448 5.068118,13.564618 5.058469,13.519138 5.055174,13.487365 5.041728,13.357707 5.002496,13.139122 4.988297,13.114751 c -0.00835,-0.01432 -0.017548,-0.06631 -0.020451,-0.115523 -0.0029,-0.04921 -0.021161,-0.294174 -0.040574,-0.544354 -0.027807,-0.358366 -0.027807,-0.551382 0,-0.909748 0.019413,-0.25018 0.038191,-0.493862 0.04173,-0.541516 C 4.972542,10.95596 4.981945,10.897473 4.9899,10.873646 4.99786,10.849816 5.032906,10.687365 5.06779,10.512635 5.145359,10.124107 5.3320182,9.5512988 5.5195335,9.1263538 5.5966365,8.9516245 5.6566801,8.798917 5.6529643,8.7870036 c -0.00372,-0.011913 0.00701,-0.021661 0.023829,-0.021661 0.016822,0 0.022553,-0.012996 0.012736,-0.028881 -0.00982,-0.015885 -0.00734,-0.028894 0.00552,-0.02891 0.012851,-1.62e-5 0.061484,-0.068247 0.1080744,-0.1516246 0.04659,-0.083377 0.1399158,-0.2380525 0.2073907,-0.343723 0.067475,-0.1056705 0.1149152,-0.1998943 0.1054231,-0.2093863 -0.00949,-0.00949 -0.00272,-0.017258 0.015049,-0.017258 0.035815,0 0.2260701,-0.2616957 0.2152153,-0.2960289 -0.00377,-0.011913 0.00456,-0.021661 0.018495,-0.021661 0.013939,0 0.086153,-0.074729 0.1604758,-0.1660649 0.2217795,-0.2725467 0.7337818,-0.7780023 1.0304281,-1.0172528 1.9943076,-1.608444 4.6497873,-2.017287 7.0331783,-1.0828424 1.101618,0.431906 2.119946,1.1695222 2.875644,2.0829464 0.28154,0.3403023 0.674716,0.9298939 0.640901,0.9610722 -0.04348,0.040093 -2.982416,1.7348417 -3.006762,1.7338627 -0.01251,-5.03e-4 -0.08117,-0.08823 -0.152578,-0.1949463 C 14.768965,9.7200976 14.35948,9.3007873 14.087454,9.1055186 13.463555,8.6576635 12.774014,8.4395142 11.98556,8.4405438 11.495912,8.4411821 11.110044,8.5124465 10.692856,8.6792843 10.175949,8.8860009 9.8227212,9.1256179 9.4217664,9.5415448 8.7688127,10.218881 8.4393938,11.043274 8.4393938,12 c 0,0.95347 0.3316231,1.780938 0.9883723,2.466192 1.1084809,1.156592 2.8109029,1.426931 4.2557109,0.67579 0.460314,-0.239312 0.976767,-0.700231 1.262371,-1.126627 0.07148,-0.106717 0.139827,-0.194443 0.151881,-0.194946 0.02371,-9.9e-4 2.965121,1.694406 3.007113,1.733262 0.03101,0.0287 -0.341313,0.599185 -0.576727,0.883688 -0.279776,0.338116 -0.599692,0.691297 -0.665651,0.734866 -0.03395,0.02242 -0.163912,0.128935 -0.288809,0.236692 -0.305513,0.263585 -0.686105,0.532362 -1.035749,0.731453 -0.158845,0.09045 -0.293168,0.17555 -0.298495,0.189116 -0.0053,0.01357 -0.02157,0.01732 -0.0361,0.0083 -0.01453,-0.009 -0.02641,-3.96e-4 -0.02641,0.01907 0,0.01947 -0.0081,0.02729 -0.01802,0.01738 -0.0099,-0.0099 -0.06514,0.0058 -0.122744,0.03501 -0.393872,0.199442 -1.221805,0.466674 -1.73912,0.561335 -0.622997,0.114 -1.277478,0.150305 -1.860192,0.103186 z"
     id="path162" />
  <path
     style="fill:#000000;stroke-width:0.0288809"
     d="M 17.545126,12.779783 V 12.375451 H 17.155235 16.765343 V 12 11.624549 h 0.389892 0.389891 v -0.404332 -0.404333 h 0.375452 0.375451 v 0.404333 0.404332 h 0.404332 0.404332 V 12 12.375451 h -0.404332 -0.404332 v 0.404332 0.404333 h -0.375451 -0.375452 z"
     id="path201" />
  <path
     style="fill:#000000;stroke-width:0.0288809"
     d="M 20.519856,12.779783 V 12.375451 H 20.115523 19.711191 V 12 11.624549 h 0.404332 0.404333 v -0.404332 -0.404333 h 0.375451 0.375451 v 0.404333 0.404332 h 0.389892 0.389892 V 12 12.375451 H 21.66065 21.270758 v 0.404332 0.404333 h -0.375451 -0.375451 z"
     id="path240" />
  <metadata
     id="metadata279">
    <rdf:RDF>
      <cc:Work
         rdf:about="">
        <dc:title>C++</dc:title>
      </cc:Work>
    </rdf:RDF>
  </metadata>
</svg>
