<?xml version="1.0" encoding="UTF-8" standalone="no"?>
<svg
   role="img"
   viewBox="0 0 24 24"
   version="1.1"
   id="svg6"
   sodipodi:docname="git_dark.svg"
   inkscape:version="1.1.2 (b8e25be833, 2022-02-05)"
   xmlns:inkscape="http://www.inkscape.org/namespaces/inkscape"
   xmlns:sodipodi="http://sodipodi.sourceforge.net/DTD/sodipodi-0.dtd"
   xmlns="http://www.w3.org/2000/svg"
   xmlns:svg="http://www.w3.org/2000/svg"
   xmlns:rdf="http://www.w3.org/1999/02/22-rdf-syntax-ns#"
   xmlns:cc="http://creativecommons.org/ns#"
   xmlns:dc="http://purl.org/dc/elements/1.1/">
  <defs
     id="defs10" />
  <sodipodi:namedview
     id="namedview8"
     pagecolor="#505050"
     bordercolor="#eeeeee"
     borderopacity="1"
     inkscape:pageshadow="0"
     inkscape:pageopacity="0"
     inkscape:pagecheckerboard="0"
     showgrid="false"
     inkscape:zoom="34.625"
     inkscape:cx="12"
     inkscape:cy="11.98556"
     inkscape:window-width="1920"
     inkscape:window-height="1017"
     inkscape:window-x="1912"
     inkscape:window-y="-8"
     inkscape:window-maximized="1"
     inkscape:current-layer="svg6" />
  <title
     id="title2">Git</title>
  <path
     d="M23.546 10.93L13.067.452c-.604-.603-1.582-.603-2.188 0L8.708 2.627l2.76 2.76c.645-.215 1.379-.07 1.889.441.516.515.658 1.258.438 1.9l2.658 2.66c.645-.223 1.387-.078 1.9.435.721.72.721 1.884 0 2.604-.719.719-1.881.719-2.6 0-.539-.541-.674-1.337-.404-1.996L12.86 8.955v6.525c.176.086.342.203.488.348.713.721.713 1.883 0 2.6-.719.721-1.889.721-2.609 0-.719-.719-.719-1.879 0-2.598.182-.18.387-.316.605-.406V8.835c-.217-.091-.424-.222-.6-.401-.545-.545-.676-1.342-.396-2.009L7.636 3.7.45 10.881c-.6.605-.6 1.584 0 2.189l10.48 10.477c.604.604 1.582.604 2.186 0l10.43-10.43c.605-.603.605-1.582 0-2.187"
     id="path4" />
  <path
     style="fill:#ffffff;stroke-width:0.0288809"
     d="M 11.672056,23.941755 C 11.237947,23.831681 11.59053,24.165427 5.7144124,18.302415 0.61022195,13.209608 0.303928,12.89834 0.20604165,12.704603 -0.0388065,12.219999 -0.04411251,11.741686 0.19013245,11.270462 0.27007336,11.109646 0.67571006,10.693969 3.9593458,7.4079422 L 7.6389779,3.7256318 8.8592003,4.948121 c 0.671122,0.6723691 1.2747217,1.2844312 1.3413327,1.3601381 l 0.12111,0.1376485 -0.05862,0.1849883 c -0.07073,0.2232078 -0.08461,0.6831093 -0.02782,0.9214507 0.02082,0.087365 0.09031,0.269314 0.154429,0.4043321 0.09437,0.1987214 0.161204,0.2897034 0.350835,0.477589 0.143103,0.1417863 0.304496,0.2688745 0.414763,0.3266036 l 0.180505,0.094501 v 3.2745917 3.274591 l -0.180505,0.0945 c -0.259585,0.135903 -0.621298,0.502757 -0.751909,0.762597 -0.166567,0.331369 -0.206689,0.503226 -0.205247,0.879141 0.0011,0.284921 0.01255,0.364932 0.08062,0.5629 0.17543,0.510227 0.495099,0.869803 0.976518,1.098429 0.883759,0.419695 1.972419,0.0629 2.41638,-0.791948 0.154996,-0.298443 0.213868,-0.536489 0.21501,-0.869381 0.0012,-0.338614 -0.04038,-0.523468 -0.186748,-0.83101 -0.134468,-0.282535 -0.406538,-0.588796 -0.664526,-0.748035 l -0.168907,-0.104255 v -3.23773 -3.2377306 l 1.231286,1.2312866 1.231286,1.231286 -0.04934,0.140513 c -0.07544,0.21486 -0.09191,0.677609 -0.03346,0.940329 0.152668,0.686212 0.66589,1.219132 1.342855,1.394394 0.24166,0.06257 0.688152,0.06263 0.930193,1.16e-4 0.598518,-0.154548 1.115158,-0.64224 1.299648,-1.226826 0.08578,-0.271815 0.103852,-0.686074 0.04204,-0.963889 -0.12095,-0.543649 -0.495642,-1.02721 -0.971471,-1.253741 -0.133793,-0.0637 -0.31474,-0.132875 -0.402104,-0.153732 -0.210564,-0.05027 -0.634183,-0.05006 -0.861874,4.22e-4 L 16.442306,10.362801 15.1309,9.0513946 13.819493,7.7399884 13.862303,7.537857 C 13.997824,6.8981383 13.815274,6.277449 13.355762,5.8155056 13.182707,5.6415353 13.084932,5.5704474 12.893079,5.4791108 12.759286,5.4154155 12.578339,5.346078 12.490975,5.3250279 12.285539,5.2755287 11.826429,5.275924 11.62836,5.3257701 L 11.473327,5.3647864 10.104531,3.996478 8.7357355,2.6281588 9.9129941,1.4542968 C 10.920317,0.44988043 11.116266,0.26745177 11.270462,0.19049286 c 0.467596,-0.23337672 0.960587,-0.2291663 1.419701,0.012125 0.171059,0.0899016 0.750259,0.66030302 5.622667,5.53725184 5.318467,5.3234223 5.433853,5.4412493 5.522358,5.6391913 0.195941,0.438219 0.192289,0.881146 -0.0108,1.309632 -0.103918,0.219251 -0.148585,0.264893 -5.475791,5.595338 -3.619457,3.621657 -5.420392,5.404206 -5.522417,5.466041 -0.339199,0.205576 -0.798492,0.281858 -1.154125,0.191683 z"
     id="path86" />
  <metadata
     id="metadata125">
    <rdf:RDF>
      <cc:Work
         rdf:about="">
        <dc:title>Git</dc:title>
      </cc:Work>
    </rdf:RDF>
  </metadata>
</svg>
