<?xml version="1.0" encoding="UTF-8" standalone="no"?>
<svg
   role="img"
   viewBox="0 0 24 24"
   version="1.1"
   id="svg6"
   sodipodi:docname="github_dark.svg"
   inkscape:version="1.1.2 (b8e25be833, 2022-02-05)"
   xmlns:inkscape="http://www.inkscape.org/namespaces/inkscape"
   xmlns:sodipodi="http://sodipodi.sourceforge.net/DTD/sodipodi-0.dtd"
   xmlns="http://www.w3.org/2000/svg"
   xmlns:svg="http://www.w3.org/2000/svg"
   xmlns:rdf="http://www.w3.org/1999/02/22-rdf-syntax-ns#"
   xmlns:cc="http://creativecommons.org/ns#"
   xmlns:dc="http://purl.org/dc/elements/1.1/">
  <defs
     id="defs10" />
  <sodipodi:namedview
     id="namedview8"
     pagecolor="#505050"
     bordercolor="#eeeeee"
     borderopacity="1"
     inkscape:pageshadow="0"
     inkscape:pageopacity="0"
     inkscape:pagecheckerboard="0"
     showgrid="false"
     inkscape:zoom="34.625"
     inkscape:cx="12"
     inkscape:cy="11.98556"
     inkscape:window-width="1920"
     inkscape:window-height="1017"
     inkscape:window-x="1912"
     inkscape:window-y="-8"
     inkscape:window-maximized="1"
     inkscape:current-layer="svg6" />
  <title
     id="title2">GitHub</title>
  <path
     d="M12 .297c-6.63 0-12 5.373-12 12 0 5.303 3.438 9.8 8.205 11.385.6.113.82-.258.82-.577 0-.285-.01-1.04-.015-2.04-3.338.724-4.042-1.61-4.042-1.61C4.422 18.07 3.633 17.7 3.633 17.7c-1.087-.744.084-.729.084-.729 1.205.084 1.838 1.236 1.838 1.236 1.07 1.835 2.809 1.305 3.495.998.108-.776.417-1.305.76-1.605-2.665-.3-5.466-1.332-5.466-5.93 0-1.31.465-2.38 1.235-3.22-.135-.303-.54-1.523.105-3.176 0 0 1.005-.322 3.3 1.23.96-.267 1.98-.399 3-.405 1.02.006 2.04.138 3 .405 2.28-1.552 3.285-1.23 3.285-1.23.645 1.653.24 2.873.12 3.176.765.84 1.23 1.91 1.23 3.22 0 4.61-2.805 5.625-5.475 5.92.42.36.81 1.096.81 2.22 0 1.606-.015 2.896-.015 3.286 0 .315.21.69.825.57C20.565 22.092 24 17.592 24 12.297c0-6.627-5.373-12-12-12"
     id="path4" />
  <path
     style="fill:#ffffff;stroke-width:0.0288809"
     d="M 8.2599278,23.678133 C 8.1241112,23.64269 7.6016058,23.448286 7.3245317,23.330107 5.9501147,22.743886 4.7286094,21.928264 3.6567786,20.881078 2.2129647,19.470462 1.2037766,17.85539 0.59716864,15.984577 -0.4155896,12.861175 -0.0872882,9.3915171 1.4906775,6.5415162 2.6879616,4.3790732 4.4693536,2.6688466 6.6738576,1.5654004 9.7119965,0.04468497 13.292695,-0.09750426 16.462094,1.1767103 c 0.770418,0.3097361 1.426654,0.6562405 2.151624,1.1360956 4.521759,2.9929347 6.466337,8.6294761 4.751905,13.7738371 -0.581246,1.744096 -1.541386,3.296081 -2.860208,4.623283 -1.263031,1.271057 -2.701811,2.192864 -4.39697,2.817083 -0.526671,0.193939 -0.774678,0.18758 -0.997211,-0.02557 -0.164688,-0.157745 -0.167571,-0.198234 -0.147414,-2.070511 0.01989,-1.847009 0.0067,-2.136486 -0.119767,-2.635146 -0.09241,-0.364278 -0.312567,-0.812733 -0.50337,-1.025336 l -0.147697,-0.164573 0.09484,-0.01486 c 0.05216,-0.0082 0.27552,-0.04245 0.496348,-0.07617 2.775357,-0.423825 4.295371,-1.809286 4.725578,-4.307264 0.135539,-0.787001 0.149461,-1.943398 0.03036,-2.521654 C 19.380324,9.9101121 19.021018,9.1573629 18.550853,8.6134097 L 18.407049,8.447036 18.465755,8.2668393 c 0.253541,-0.7782397 0.219949,-1.8072145 -0.08904,-2.727254 l -0.09513,-0.2832676 -0.231046,-0.00928 C 17.353318,5.2190247 16.371091,5.5888052 15.28926,6.2865794 L 14.982852,6.4842105 14.625,6.3989253 C 13.726686,6.1848338 12.96889,6.0986126 11.98556,6.0986126 c -0.984099,0 -1.773106,0.08948 -2.6393162,0.2993207 L 8.9885164,6.4845932 8.7253051,6.314984 C 7.6353086,5.6126082 6.6289721,5.2257669 5.9492944,5.24787 L 5.6895307,5.25632 5.6405357,5.357403 C 5.6135882,5.4129964 5.5577019,5.5754513 5.516344,5.7184116 5.2733147,6.5584788 5.2610336,7.5268849 5.4844855,8.2305395 l 0.069518,0.2189147 -0.129479,0.150724 C 5.2369008,8.818588 4.9667977,9.2301355 4.8224679,9.5175136 4.4385921,10.281856 4.2964419,11.077507 4.3479896,12.173285 c 0.1467847,3.12028 1.6677646,4.830327 4.7494833,5.339875 0.1906137,0.03152 0.421062,0.06607 0.5121069,0.07678 l 0.1655364,0.01947 -0.1576837,0.174247 c -0.2132202,0.235616 -0.3984615,0.616573 -0.4949008,1.017786 -0.042,0.174729 -0.085534,0.336873 -0.096744,0.36032 -0.047455,0.09926 -0.6282709,0.272717 -1.0883636,0.325033 C 7.3929814,19.548703 6.8675232,19.423355 6.4182036,19.124388 6.1038573,18.91523 5.892575,18.686708 5.5824601,18.220452 5.0493623,17.418943 4.3707342,16.967147 3.7006989,16.96767 c -0.3476367,2.6e-4 -0.538244,0.07986 -0.538244,0.224733 0,0.155101 0.1641262,0.321792 0.6149282,0.624538 0.4399763,0.295476 0.8817233,0.918848 1.1861736,1.673873 0.1868271,0.463323 0.5542342,0.925202 0.9556603,1.201391 0.23165,0.159379 0.655354,0.342509 0.9850291,0.425741 0.294886,0.07445 0.3554781,0.07972 0.9080283,0.07892 0.4312589,-6.21e-4 0.6646169,-0.01423 0.8592185,-0.05012 0.1469386,-0.0271 0.2805885,-0.04927 0.2969998,-0.04927 0.020161,0 0.027182,0.364484 0.021648,1.123708 l -0.00819,1.123708 -0.088498,0.110949 c -0.048674,0.06102 -0.1351247,0.134154 -0.192113,0.162516 -0.108326,0.05391 -0.3424144,0.08561 -0.4414108,0.05978 z"
     id="path86" />
  <metadata
     id="metadata125">
    <rdf:RDF>
      <cc:Work
         rdf:about="">
        <dc:title>GitHub</dc:title>
      </cc:Work>
    </rdf:RDF>
  </metadata>
</svg>
