<?xml version="1.0" encoding="UTF-8" standalone="no"?>
<svg
   role="img"
   viewBox="0 0 24 24"
   version="1.1"
   id="svg6"
   sodipodi:docname="gitlab_dark.svg"
   inkscape:version="1.1.2 (b8e25be833, 2022-02-05)"
   xmlns:inkscape="http://www.inkscape.org/namespaces/inkscape"
   xmlns:sodipodi="http://sodipodi.sourceforge.net/DTD/sodipodi-0.dtd"
   xmlns="http://www.w3.org/2000/svg"
   xmlns:svg="http://www.w3.org/2000/svg"
   xmlns:rdf="http://www.w3.org/1999/02/22-rdf-syntax-ns#"
   xmlns:cc="http://creativecommons.org/ns#"
   xmlns:dc="http://purl.org/dc/elements/1.1/">
  <defs
     id="defs10" />
  <sodipodi:namedview
     id="namedview8"
     pagecolor="#505050"
     bordercolor="#eeeeee"
     borderopacity="1"
     inkscape:pageshadow="0"
     inkscape:pageopacity="0"
     inkscape:pagecheckerboard="0"
     showgrid="false"
     inkscape:zoom="34.625"
     inkscape:cx="12"
     inkscape:cy="11.98556"
     inkscape:window-width="1920"
     inkscape:window-height="1017"
     inkscape:window-x="1912"
     inkscape:window-y="-8"
     inkscape:window-maximized="1"
     inkscape:current-layer="svg6" />
  <title
     id="title2">GitLab</title>
  <path
     d="M4.845.904c-.435 0-.82.28-.955.692C2.639 5.449 1.246 9.728.07 13.335a1.437 1.437 0 00.522 1.607l11.071 8.045c.2.145.472.144.67-.004l11.073-8.04a1.436 1.436 0 00.522-1.61c-1.285-3.942-2.683-8.256-3.817-11.746a1.004 1.004 0 00-.957-.684.987.987 0 00-.949.69l-2.405 7.408H8.203l-2.41-7.408a.987.987 0 00-.942-.69h-.006zm-.006 1.42l2.173 6.678H2.675zm14.326 0l2.168 6.678h-4.341zm-10.593 7.81h6.862c-1.142 3.52-2.288 7.04-3.434 10.559L8.572 10.135zm-5.514.005h4.321l3.086 9.5zm13.567 0h4.325c-2.467 3.17-4.95 6.328-7.411 9.502 1.028-3.167 2.059-6.334 3.086-9.502zM2.1 10.762l6.977 8.947-7.817-5.682a.305.305 0 01-.112-.341zm19.798 0l.952 2.922a.305.305 0 01-.11.341v.002l-7.82 5.68.026-.035z"
     id="path4" />
  <path
     style="fill:#ffffff;stroke-width:0.0288809"
     d="M 11.85545,23.058077 C 11.709123,23.017635 0.59269173,14.936864 0.39668202,14.728454 0.3130521,14.639534 0.21223731,14.502861 0.17264916,14.424738 0.0323722,14.147914 -0.01820504,13.780419 0.0456287,13.501805 0.1107233,13.217688 3.9234851,1.5503648 3.9935659,1.420836 4.2829115,0.88604499 5.022677,0.75590831 5.4728066,1.1606137 c 0.080303,0.072199 0.1770424,0.1850019 0.2149759,0.250672 0.052238,0.090433 1.6404292,4.9172327 2.4126236,7.3323966 l 0.090031,0.2815885 h 3.8085239 3.808523 l 0.130921,-0.397112 c 0.07201,-0.2184115 0.619645,-1.9033594 1.216976,-3.7443283 0.59733,-1.8409693 1.110378,-3.3940379 1.140105,-3.4512637 0.172473,-0.3320096 0.597203,-0.55596316 0.966811,-0.50978375 0.284183,0.0355064 0.578941,0.22043755 0.728194,0.45686975 0.03866,0.061236 0.172843,0.4256847 0.298193,0.809886 2.541007,7.7882977 3.673914,11.3170382 3.688418,11.4885612 0.03313,0.391831 -0.130746,0.821102 -0.421565,1.104252 -0.131702,0.12823 -11.164439,8.152933 -11.318722,8.232715 -0.113426,0.05866 -0.263513,0.07558 -0.381365,0.04301 z m 1.872618,-7.628474 c 0.940901,-2.894946 1.710286,-5.273285 1.709743,-5.285199 -5.43e-4,-0.01191 -1.549074,-0.02166 -3.441179,-0.02166 -3.2622349,0 -3.4394973,0.0026 -3.426764,0.05054 0.058463,0.220051 3.416954,10.519856 3.430243,10.519856 0.0095,0 0.787055,-2.368592 1.727957,-5.263538 z M 9.0562862,19.66065 c -0.055406,-0.0973 -6.9221988,-8.884299 -6.9493959,-8.892696 -0.015107,-0.0047 -0.2462904,0.666572 -0.51374,1.491635 -0.5244813,1.617987 -0.5218591,1.605631 -0.3707172,1.746858 0.097281,0.0909 7.8091623,5.70081 7.8399548,5.703076 0.012472,9.18e-4 0.00973,-0.02107 -0.0061,-0.04887 z m 9.7666508,-2.765362 c 2.132583,-1.548748 3.9127,-2.84905 3.955814,-2.889561 0.149559,-0.140528 0.149377,-0.141377 -0.374476,-1.745799 -0.267098,-0.818051 -0.497172,-1.487365 -0.511277,-1.487365 -0.02671,0 -6.971245,8.878921 -6.974294,8.916968 -9.56e-4,0.01191 0.0047,0.02166 0.01254,0.02166 0.0078,0 1.759114,-1.267156 3.891697,-2.815903 z M 8.9357874,14.874387 7.3935018,10.123357 5.21781,10.123051 c -1.2484743,-1.74e-4 -2.1715894,0.01057 -2.166065,0.02523 0.020447,0.05423 7.400998,9.502469 7.413303,9.490164 0.0072,-0.0072 -0.6810035,-2.150988 -1.5292606,-4.764055 z m 5.7409136,3.334999 c 0.854427,-1.099592 4.246442,-5.446883 5.949031,-7.624426 0.180035,-0.230258 0.327337,-0.428535 0.327337,-0.440616 0,-0.01208 -0.977581,-0.01863 -2.172401,-0.01456 l -2.172401,0.0074 -1.538518,4.736462 c -0.846186,2.605054 -1.538641,4.748995 -1.538791,4.764312 -4.42e-4,0.04518 0.03245,0.0042 1.145743,-1.428572 z M 7.0254172,8.9891697 C 7.0181277,8.9693141 6.5271119,7.4617329 5.9342712,5.6389892 5.3414305,3.8162455 4.8484803,2.3249097 4.8388266,2.3249097 c -0.018459,0 -2.1673465,6.6107108 -2.1673465,6.667499 0,0.024272 0.5707535,0.032862 2.1835954,0.032862 1.7346909,0 2.1808708,-0.00742 2.1703417,-0.036101 z M 21.346234,8.980067 C 21.336694,8.9552049 20.846956,7.450973 20.257928,5.6373294 19.668899,3.8236855 19.181452,2.3342799 19.174711,2.327539 c -0.0067,-0.00674 -0.01706,-0.00684 -0.02294,-2.224e-4 -0.0059,0.00662 -0.492844,1.4947715 -1.082148,3.3070066 -0.589304,1.8122348 -1.079749,3.3165669 -1.089877,3.3429603 -0.01706,0.04447 0.142891,0.047987 2.182711,0.047987 1.985428,0 2.199426,-0.00443 2.183779,-0.045204 z"
     id="path86" />
  <metadata
     id="metadata125">
    <rdf:RDF>
      <cc:Work
         rdf:about="">
        <dc:title>GitLab</dc:title>
      </cc:Work>
    </rdf:RDF>
  </metadata>
</svg>
