<?xml version="1.0" encoding="UTF-8" standalone="no"?>
<svg
   role="img"
   viewBox="0 0 24 24"
   version="1.1"
   id="svg6"
   sodipodi:docname="jenkins_dark.svg"
   inkscape:version="1.1.2 (b8e25be833, 2022-02-05)"
   xmlns:inkscape="http://www.inkscape.org/namespaces/inkscape"
   xmlns:sodipodi="http://sodipodi.sourceforge.net/DTD/sodipodi-0.dtd"
   xmlns="http://www.w3.org/2000/svg"
   xmlns:svg="http://www.w3.org/2000/svg"
   xmlns:rdf="http://www.w3.org/1999/02/22-rdf-syntax-ns#"
   xmlns:cc="http://creativecommons.org/ns#"
   xmlns:dc="http://purl.org/dc/elements/1.1/">
  <defs
     id="defs10" />
  <sodipodi:namedview
     id="namedview8"
     pagecolor="#505050"
     bordercolor="#eeeeee"
     borderopacity="1"
     inkscape:pageshadow="0"
     inkscape:pageopacity="0"
     inkscape:pagecheckerboard="0"
     showgrid="false"
     inkscape:zoom="34.625"
     inkscape:cx="12"
     inkscape:cy="11.98556"
     inkscape:window-width="1920"
     inkscape:window-height="1017"
     inkscape:window-x="1912"
     inkscape:window-y="-8"
     inkscape:window-maximized="1"
     inkscape:current-layer="svg6" />
  <title
     id="title2">Jenkins</title>
  <path
     d="M2.872 24h-.975a3.866 3.866 0 01-.07-.197c-.215-.666-.594-1.49-.692-2.154-.146-.984.78-1.039 1.374-1.465.915-.66 1.635-1.025 2.627-1.62.295-.179 1.182-.624 1.281-.829.201-.408-.345-.982-.49-1.3-.225-.507-.345-.937-.376-1.435-.824-.13-1.455-.627-1.844-1.185-.63-.925-1.066-2.635-.525-3.936.045-.103.254-.305.285-.463.06-.308-.105-.72-.12-1.048-.06-1.692.284-3.15 1.425-3.66.463-1.84 2.113-2.453 3.673-3.367.58-.342 1.224-.562 1.89-.807 2.372-.877 6.027-.712 7.994.783.836.633 2.176 1.97 2.656 2.939 1.262 2.555 1.17 6.825.287 9.934-.12.421-.29 1.032-.533 1.533-.168.35-.689 1.05-.625 1.36.064.314 1.19 1.17 1.432 1.395.434.422 1.26.975 1.324 1.5.07.557-.248 1.336-.41 1.875-.217.721-.436 1.441-.654 2.131H2.87zm11.104-3.54c-.545-.3-1.361-.622-2.065-.757-.87-.164-.78 1.188-.75 1.994.03.643.36 1.316.51 1.744.076.197.09.41.256.449.3.068 1.29-.326 1.575-.479.6-.328 1.064-.844 1.574-1.189.016-.17.016-.34.03-.508a2.648 2.648 0 00-1.095-.277c.314-.15.75-.15 1.035-.332l.016-.193c-.496-.03-.69-.254-1.021-.436zm7.454 2.935a17.78 17.78 0 00.465-1.752c.06-.287.215-.918.178-1.176-.059-.459-.684-.799-1.004-1.086-.584-.525-.95-.975-1.56-1.469-.249.375-.78.615-.983.914 1.447-.689 1.71 2.625 1.141 3.69.09.329.391.45.514.735l-.086.166h1.29c.013 0 .03 0 .044.014zm-6.634-.012c-.05-.074-.1-.135-.15-.209l-.301.195h.45zm2.77 0c.008-.209.018-.404.03-.598-.53.029-.825-.48-1.196-.527-.324-.045-.6.361-1.02.195-.095.105-.183.227-.284.316.154.18.295.375.424.584h.815c.014-.164.135-.285.3-.285.165 0 .284.121.284.27h.66zm2.116 0c-.314-.479-.947-.898-1.68-.555l-.03.541h1.71zm-8.51 0l-.104-.344c-.225-.72-.36-1.26-.405-1.68-.914-.436-1.875-.87-2.654-1.426-.15-.105-1.109-1.35-1.23-1.305-1.739.676-3.359 1.86-4.814 2.984.256.557.48 1.141.69 1.74h8.505zm8.265-2.113c-.029-.512-.164-1.56-.48-1.74-.66-.39-1.846.78-2.34.943.045.15.135.271.15.48.285-.074.645-.029.898.092-.299.03-.629.03-.824.164-.074.195.016.48-.029.764.69.197 1.5.303 2.385.332.164-.227.225-.645.211-1.082zm-4.08-.36c-.044.375.046.51.12.943 1.26.391 1.034-1.74-.135-.959zM8.76 19.5c-.45.457 1.27 1.082 1.814 1.115 0-.29.165-.564.135-.77-.65-.118-1.502-.042-1.945-.347zm5.565.215c0 .043-.061.03-.068.064.58.451 1.014.545 1.802.51.354-.262.67-.563 1.043-.807-.855.074-1.931.607-2.774.23zm3.42-17.726c-1.606-.906-4.35-1.591-6.076-.731-1.38.692-3.27 1.84-3.899 3.292.6 1.402-.166 2.686-.226 4.109-.018.757.36 1.42.391 2.242-.2.338-.825.38-1.26.356-.146-.729-.4-1.549-1.155-1.63-1.064-.116-1.845.764-1.89 1.683-.06 1.08.833 2.864 2.085 2.745.488-.046.608-.54 1.139-.54.285.57-.445.75-.523 1.154-.016.105.06.511.104.705.233.944.744 2.16 1.245 2.88.635.9 1.884 1.051 3.229 1.141.24-.525 1.125-.48 1.706-.346-.691-.27-1.336-.945-1.875-1.529-.615-.676-1.23-1.41-1.261-2.28 1.155 1.604 2.1 3 4.2 3.704 1.59.525 3.45-.254 4.664-1.109.51-.359.811-.93 1.17-1.439 1.35-1.936 1.98-4.71 1.846-7.394-.06-1.111-.06-2.221-.436-2.955-.389-.781-1.695-1.471-2.475-.781-.15-.764.63-1.23 1.545-.96-.66-.854-1.336-1.858-2.266-2.384zM13.58 14.896c.615 1.544 2.724 1.363 4.505 1.323-.084.194-.256.435-.465.515-.57.232-2.145.408-2.937-.012-.506-.27-.824-.873-1.102-1.227-.137-.172-.795-.608-.012-.609zm.164-.87c.893.464 2.52.517 3.731.48.066.267.066.593.068.913-1.55.08-3.386-.304-3.794-1.395h-.005zm6.675-.586c-.473.9-1.145 1.897-2.539 1.928-.023-.284-.045-.735 0-.904 1.064-.103 1.727-.646 2.543-1.017zm-.649-.667c-1.02.66-2.154 1.375-3.824 1.21-.351-.31-.485-1-.14-1.458.181.313.06.885.57.97.944.165 2.038-.579 2.73-.84.42-.713-.046-.976-.42-1.433-.782-.93-1.83-2.1-1.802-3.51.314-.224.346.346.391.45.404.96 1.424 2.175 2.174 3 .18.21.48.39.51.524.092.39-.254.854-.209 1.11zm-13.439-.675c-.314-.184-.393-.99-.768-1.01-.535-.03-.438 1.05-.436 1.68-.37-.33-.435-1.365-.164-1.89-.308-.15-.445.164-.618.284.22-1.59 2.34-.734 1.99.96zM4.713 5.995c-.685.756-.54 2.174-.459 3.188 1.244-.785 2.898.06 2.883 1.394.595-.016.223-.744.115-1.215-.353-1.528.592-3.187.041-4.59-1.064.084-1.939.52-2.578 1.215zm9.12 1.113c.307.562.404 1.148.84 1.57.195.19.574.424.387.95-.045.121-.365.391-.551.45-.674.195-2.254.03-1.721-.81.563.015 1.314.36 1.732-.045-.314-.524-.885-1.53-.674-2.13zm6.198-.013h.068c.33.668.6 1.375 1.004 1.965-.27.628-2.053 1.19-2.023.057.39-.17 1.05-.035 1.395-.25-.193-.556-.48-1.006-.434-1.771zm-6.927-1.617c-1.422-.33-2.131.592-2.56 1.553-.384-.094-.231-.615-.135-.883.255-.701 1.28-1.633 2.119-1.506.359.057.848.386.576.834zM9.642 1.593c-1.56.44-3.56 1.574-4.2 2.974.495-.07.84-.321 1.33-.351.186-.016.428.074.641.015.424-.104.78-1.065 1.102-1.41.31-.345.685-.496.94-.81.167-.09.409-.074.42-.33-.073-.075-.15-.135-.232-.105v.017z"
     id="path4" />
  <path
     style="fill:#ffffff;stroke-width:0.0288809"
     d="M 1.8763191,23.898917 C 1.8664129,23.859206 1.7467093,23.5213 1.610311,23.148014 0.92296681,21.266938 0.95693678,21.008846 1.9583933,20.503402 2.1679196,20.397653 2.599278,20.138429 2.9169675,19.92735 3.4152924,19.596254 4.076409,19.200539 5.732852,18.241886 6.3877022,17.862898 6.4700459,17.78164 6.4663613,17.518055 6.4635772,17.318901 6.3984838,17.167462 6.1356609,16.748684 5.8441978,16.284271 5.6421918,15.697279 5.5723867,15.111913 c -0.013048,-0.109415 -0.027391,-0.137184 -0.07086,-0.137184 -0.090885,0 -0.5229739,-0.145634 -0.7073026,-0.238393 C 4.2037193,14.439178 3.7725537,13.98303 3.4519067,13.316243 3.0863181,12.556 2.9362103,11.84257 2.9690584,11.02137 2.9943064,10.390168 3.0931306,10.033198 3.3410188,9.6777811 3.4763759,9.4837092 3.4801444,9.4725892 3.4801444,9.2672529 c 0,-0.1160792 -0.025953,-0.344727 -0.057674,-0.508106 C 3.3787645,8.5340407 3.3647746,8.3431359 3.3647083,7.9709421 3.3644253,6.3741346 3.7781437,5.3201011 4.602504,4.8174094 4.7825646,4.707609 4.7826316,4.7075174 4.8674108,4.4547593 5.148668,3.6162284 5.7072442,2.9834495 6.7374071,2.3363478 7.1919391,2.0508315 8.7751001,1.1748516 9.0845476,1.0376498 9.5058209,0.85086729 10.552615,0.4667669 10.916968,0.36527925 c 2.134084,-0.59443262 4.771505,-0.41571552 6.527075,0.44228814 0.69412,0.33923851 1.187232,0.71921171 2.021815,1.55793191 0.536065,0.5387219 0.832642,0.8807329 1.154406,1.3312516 0.668016,0.9353253 1.10651,2.4531119 1.255321,4.3451232 0.03927,0.4992866 0.03939,1.9321343 2.02e-4,2.4797899 -0.09392,1.312605 -0.314834,2.594328 -0.646215,3.749234 -0.265744,0.926155 -0.41816,1.31208 -0.718448,1.819148 -0.375087,0.633375 -0.457108,0.849937 -0.394154,1.040689 0.04553,0.137942 0.444758,0.542028 0.982495,0.994439 1.099297,0.924864 1.535432,1.34687 1.678545,1.62417 0.148109,0.286981 0.09279,0.768637 -0.189681,1.651378 -0.08641,0.270036 -0.296042,0.945848 -0.465852,1.501805 -0.169811,0.555957 -0.317256,1.019987 -0.327656,1.031178 -0.0104,0.01119 -4.492264,0.02419 -9.959699,0.02888 l -9.9407916,0.0085 z M 12.617791,23.783179 c 0.650967,-0.207394 1.10236,-0.445671 1.566583,-0.826952 0.43328,-0.355867 0.778312,-0.63415 0.83823,-0.676068 0.05302,-0.03709 0.06542,-0.0833 0.08314,-0.309835 l 0.02083,-0.266241 -0.166504,-0.07364 c -0.189508,-0.08381 -0.589219,-0.1859 -0.729024,-0.186201 -0.180473,-3.9e-4 -0.09106,-0.04686 0.259928,-0.135085 0.194585,-0.04891 0.402527,-0.109391 0.462094,-0.134396 0.09925,-0.04166 0.108303,-0.05502 0.108303,-0.159751 v -0.114287 l -0.142153,-0.01955 c -0.151085,-0.02078 -0.399594,-0.127565 -0.610513,-0.26234 -0.311612,-0.199117 -1.117896,-0.560571 -1.615565,-0.724251 -0.327903,-0.107845 -0.779201,-0.212195 -0.917895,-0.212237 -0.490989,-1.45e-4 -0.665577,0.461635 -0.633296,1.675053 0.01751,0.658321 0.04573,0.815368 0.246472,1.371841 0.06303,0.174729 0.175364,0.486642 0.249627,0.693141 0.07426,0.206498 0.15684,0.399741 0.183505,0.42943 0.07148,0.07959 0.427246,0.04892 0.796237,-0.06863 z m 8.911114,-0.656825 c 0.26675,-0.874906 0.550517,-2.178798 0.550517,-2.529589 0,-0.365069 -0.113457,-0.524919 -0.707581,-0.996909 -0.190614,-0.15143 -0.6,-0.523423 -0.909747,-0.826651 -0.309747,-0.303229 -0.649681,-0.62613 -0.755407,-0.717559 l -0.19223,-0.166235 -0.154341,0.163289 c -0.08489,0.08981 -0.286534,0.265371 -0.448104,0.390139 -0.379387,0.29297 -0.486897,0.431507 -0.276633,0.356469 0.506973,-0.180924 0.933714,0.191082 1.145444,0.998526 0.106301,0.405383 0.141485,0.711547 0.141059,1.227437 -4.39e-4,0.530407 -0.05542,0.908057 -0.186109,1.278326 -0.08279,0.234565 -0.08347,0.241254 -0.03492,0.343568 0.02723,0.05739 0.116061,0.177314 0.197394,0.266497 0.268179,0.294064 0.279802,0.314652 0.230949,0.409122 -0.0234,0.04526 -0.04255,0.08943 -0.04255,0.09816 0,0.0087 0.30321,0.01588 0.673801,0.01588 h 0.673801 z M 11.177393,23.34296 c -0.162164,-0.482635 -0.396521,-1.365269 -0.461442,-1.737883 -0.0247,-0.141756 -0.04806,-0.26049 -0.05191,-0.263853 -0.0039,-0.0034 -0.273428,-0.132914 -0.59906,-0.287891 C 9.2083781,20.645653 8.45992,20.234379 8.099613,19.973374 8.0312162,19.923828 7.83291,19.717853 7.6589326,19.515652 7.1592124,18.934865 6.8906807,18.647315 6.8300586,18.628074 c -0.1183604,-0.03757 -1.1971422,0.474503 -1.972121,0.936114 -0.6038388,0.359672 -1.3742182,0.884927 -2.1433293,1.461351 -0.3811212,0.285638 -0.7094766,0.532426 -0.7296787,0.548419 -0.028695,0.02271 0.00679,0.133324 0.1621597,0.505537 0.1093899,0.262054 0.2672031,0.66166 0.3506959,0.888014 l 0.1518052,0.411552 h 4.2699663 c 3.4031883,0 4.2675043,-0.0073 4.2578363,-0.0361 z m 3.60658,0 c -0.01149,-0.01985 -0.0453,-0.07138 -0.07514,-0.114496 l -0.05426,-0.0784 -0.142889,0.08792 c -0.07859,0.04836 -0.15028,0.09988 -0.159314,0.114496 -0.0095,0.01535 0.08264,0.02658 0.218031,0.02658 0.179447,0 0.229557,-0.0085 0.213576,-0.0361 z m 1.577038,-0.02388 c 0,-0.09826 0.153065,-0.228825 0.268252,-0.228825 0.117782,0 0.23776,0.08532 0.263348,0.187268 0.01814,0.07229 0.01991,0.07266 0.346206,0.07266 h 0.32797 l 0.01805,-0.09025 c 0.0099,-0.04964 0.01805,-0.179603 0.01805,-0.288809 0,-0.197124 -5.72e-4,-0.198563 -0.07942,-0.199499 -0.148922,-0.0018 -0.367889,-0.100801 -0.665521,-0.301 -0.266734,-0.179416 -0.314498,-0.201213 -0.464717,-0.212079 -0.14588,-0.01055 -0.198683,0.0019 -0.410291,0.09645 -0.229435,0.102557 -0.446048,0.139917 -0.570032,0.09831 -0.0211,-0.0071 -0.104112,0.06158 -0.184478,0.152565 l -0.14612,0.165436 0.157452,0.210015 c 0.0866,0.115509 0.182163,0.252254 0.212366,0.303879 l 0.05491,0.09386 h 0.426986 c 0.413003,0 0.426986,-0.002 0.426986,-0.05998 z m 3.321299,0.03011 c 0,-0.05698 -0.390767,-0.418176 -0.537399,-0.496726 -0.323562,-0.173329 -0.667395,-0.204317 -1.014947,-0.09147 l -0.151625,0.04923 v 0.194169 c 0,0.106793 -0.0081,0.234783 -0.01805,0.284422 l -0.01805,0.09025 h 0.870036 c 0.580105,0 0.870036,-0.01 0.870036,-0.02988 z m -0.384185,-1.213712 c 0.229592,-0.579347 0.12948,-1.922816 -0.183054,-2.456509 -0.104546,-0.178526 -0.185386,-0.21326 -0.496343,-0.21326 -0.273677,0 -0.285157,0.0028 -0.562619,0.136135 -0.155782,0.07487 -0.502189,0.27971 -0.769793,0.45519 -0.267605,0.175481 -0.532727,0.338348 -0.589161,0.361928 l -0.102608,0.04287 0.07096,0.188518 c 0.03903,0.103684 0.07096,0.212189 0.07096,0.241122 0,0.04743 0.02911,0.05265 0.296029,0.05311 0.182729,3.12e-4 0.34577,0.01691 0.425993,0.04336 l 0.129964,0.04285 -0.202166,0.02107 c -0.211446,0.02203 -0.460403,0.08304 -0.534296,0.130935 -0.03462,0.02244 -0.04413,0.106219 -0.04732,0.417284 l -0.004,0.389207 0.30725,0.0731 c 0.586438,0.13952 1.429304,0.246184 1.881177,0.238062 l 0.245408,-0.0044 z m -3.260873,-0.284024 c 0.202425,-0.103314 0.295265,-0.27485 0.294244,-0.543662 -0.0019,-0.504128 -0.39953,-0.731578 -0.871339,-0.498438 l -0.135511,0.06696 0.01054,0.218885 c 0.0058,0.120386 0.03753,0.338964 0.07053,0.485727 0.033,0.146763 0.05999,0.272525 0.05999,0.27947 0,0.02385 0.101346,0.03905 0.282739,0.04239 0.126631,0.0023 0.214114,-0.01322 0.288809,-0.05134 z m -5.452414,-1.27067 c 0,-0.03003 0.03249,-0.179651 0.0722,-0.332491 0.03971,-0.15284 0.0722,-0.308773 0.0722,-0.346518 0,-0.08501 -0.01332,-0.08772 -0.722022,-0.146607 -0.6106554,-0.05074 -0.9064041,-0.10653 -1.1099842,-0.209377 -0.1357715,-0.06859 -0.1442648,-0.06953 -0.1805054,-0.01997 -0.020917,0.0286 -0.03803,0.09753 -0.03803,0.153158 0,0.281588 0.8153828,0.735722 1.6317686,0.908827 0.267125,0.05664 0.274369,0.05645 0.274369,-0.007 z m 5.670771,-0.429154 c 0.118484,-0.09134 0.331099,-0.25704 0.472478,-0.368231 0.141379,-0.111192 0.288826,-0.225512 0.32766,-0.254045 0.07009,-0.0515 0.06928,-0.05177 -0.110572,-0.03647 -0.09965,0.0085 -0.411562,0.06881 -0.693141,0.134084 -0.937065,0.217225 -1.28642,0.246766 -1.691888,0.143065 -0.378536,-0.09681 -0.401516,-0.03155 -0.06715,0.190714 0.35624,0.236801 0.756334,0.343444 1.324929,0.353155 l 0.222258,0.0038 z M 11.11579,19.177487 c 0.173539,-0.132364 0.411071,-0.188459 0.79292,-0.187256 0.185228,5.84e-4 0.424503,0.01804 0.531723,0.0388 0.10722,0.02075 0.194946,0.03346 0.194946,0.02823 0,-0.0052 -0.08123,-0.05045 -0.180505,-0.100509 -0.422856,-0.213204 -0.817308,-0.532703 -1.396419,-1.131074 -0.700605,-0.723905 -1.12532,-1.27315 -1.3401884,-1.733142 -0.1219249,-0.261018 -0.2101063,-0.564657 -0.1964133,-0.676318 0.00732,-0.05972 0.072364,0.01528 0.3805424,0.438778 1.1009223,1.512886 1.8801003,2.238818 2.9784703,2.774935 1.055555,0.515218 1.853116,0.614771 2.960289,0.36951 0.655242,-0.14515 1.504189,-0.50643 2.164854,-0.921282 0.609111,-0.382479 0.792632,-0.580115 1.429425,-1.539363 0.598697,-0.901861 0.847172,-1.377546 1.168935,-2.237826 0.638562,-1.707287 0.869833,-3.53962 0.740609,-5.867757 -0.07458,-1.3436355 -0.161735,-1.8689051 -0.388699,-2.3425973 -0.200854,-0.4191982 -0.620112,-0.7938322 -1.11726,-0.9983428 -0.215934,-0.088829 -0.249394,-0.094215 -0.590247,-0.095025 -0.356016,-8.462e-4 -0.364309,6.296e-4 -0.563177,0.100225 -0.111012,0.055596 -0.211588,0.1054152 -0.223501,0.1107099 -0.03697,0.01643 -0.02382,-0.2084719 0.02101,-0.3594371 0.13971,-0.470454 0.784185,-0.7149822 1.437474,-0.5454097 C 19.96426,4.3146744 20,4.3148696 20,4.3037692 20,4.281187 19.557268,3.6974767 19.222432,3.278603 19.10208,3.1280451 18.873646,2.8694559 18.714801,2.703961 18.342621,2.3161985 17.781091,1.8771516 17.726788,1.9314554 17.718462,1.9397807 17.581632,1.8813462 17.422721,1.8016008 17.069921,1.6245575 16.545088,1.4139766 16.101542,1.2714991 14.753594,0.83850576 13.38524,0.73792188 12.357872,0.99631229 11.96372,1.0954444 11.710924,1.2036581 11.133574,1.5203933 9.4510677,2.4434197 8.3336026,3.4043206 7.8587731,4.3363731 L 7.7536188,4.5427824 7.8406417,4.8025279 C 8.0234056,5.3480422 8.0231139,5.9573586 7.8396713,6.8303249 7.4602218,8.6360407 7.4551318,8.7560326 7.714203,9.7880003 7.7856214,10.072483 7.8634677,10.435076 7.8871945,10.593761 l 0.04314,0.288518 -0.08069,0.0849 C 7.6869788,11.13834 7.452519,11.213593 7.0007711,11.239637 l -0.3060889,0.01765 -0.065167,-0.271244 C 6.4039506,10.047179 6.0491919,9.6448644 5.4164806,9.6104003 4.6622874,9.5693193 3.9789317,10.051053 3.7064617,10.815884 c -0.059338,0.166565 -0.066694,0.238188 -0.065253,0.63538 0.00146,0.403403 0.00947,0.473346 0.081051,0.707581 0.1859097,0.608392 0.4260204,1.031442 0.7962427,1.402899 0.3004627,0.301464 0.5683827,0.448602 0.9052035,0.497126 0.3287454,0.04736 0.4872921,0.0019 0.7845383,-0.224884 0.2826868,-0.21569 0.374982,-0.266551 0.5281309,-0.291041 l 0.1142787,-0.01827 0.030582,0.120482 c 0.053456,0.2106 7.365e-4,0.318576 -0.3262717,0.668247 -0.1262178,0.134964 -0.2181017,0.260344 -0.2297892,0.313557 -0.010711,0.04877 0.00237,0.228193 0.029063,0.398725 0.1652026,1.055325 0.9330025,2.842693 1.4823324,3.450736 0.1287339,0.142493 0.3967065,0.333702 0.6351911,0.453235 0.477786,0.239474 1.1954553,0.392018 2.1563986,0.458353 l 0.288809,0.01994 0.04808,-0.07608 c 0.02644,-0.04184 0.09428,-0.111312 0.15074,-0.154378 z M 7.3812829,10.500416 c 0.075848,-0.07585 0.084421,-0.103329 0.084421,-0.270612 0,-0.123147 -0.029575,-0.2857442 -0.087344,-0.4802031 C 7.1337331,8.9261562 7.1278466,8.5478966 7.338164,7.1665687 7.5138088,6.012964 7.5221187,5.5186178 7.3750293,4.9734845 L 7.3143001,4.748413 7.1806157,4.7660965 C 6.3114813,4.8810634 5.7490316,5.1045331 5.1365652,5.578229 4.4280127,6.1262397 4.1753048,6.733336 4.1738143,7.891107 c -4.477e-4,0.347509 0.04937,1.2778472 0.06961,1.2999775 0.00351,0.00383 0.095608,-0.037928 0.2046715,-0.092801 0.2529831,-0.1272832 0.535686,-0.191265 0.8492326,-0.1921999 0.518225,-0.00155 0.9366238,0.1665326 1.3192029,0.5299455 0.2987503,0.2837836 0.5026022,0.7053379 0.5026022,1.0393529 0,0.102972 0.00526,0.109456 0.088864,0.109456 0.059711,0 0.1165603,-0.0277 0.1732852,-0.08442 z M 6.0938628,4.3963058 6.5270758,4.2483749 6.9891697,4.2469308 C 7.4201984,4.245585 7.4584676,4.2410077 7.5584222,4.1788569 7.7055515,4.0873739 7.8430097,3.9068199 8.1458143,3.4073086 8.4600309,2.8889718 8.5895469,2.7424551 9.030802,2.4061529 9.2189666,2.2627433 9.3890706,2.1223495 9.4088107,2.0941666 9.4285508,2.0659836 9.5321623,2.0032684 9.6390588,1.9547993 9.9237233,1.8257262 9.9709545,1.6800234 9.761423,1.5773189 9.7047272,1.5495288 9.6657424,1.5460876 9.6337753,1.5660515 9.6084627,1.5818595 9.5099304,1.6172591 9.4148147,1.6447173 9.1330949,1.7260451 8.4577225,2.0018368 8.101083,2.1811867 7.1444996,2.6622412 6.2673658,3.3336168 5.8084552,3.9360092 5.6473834,4.1474414 5.4440433,4.4868494 5.4440433,4.5442721 c 0,0.057947 0.1404896,0.025957 0.6498195,-0.1479663 z"
     id="path86" />
  <path
     style="fill:#ffffff;stroke-width:0.0288809"
     d="M 5.0208735,12.606498 C 4.7954137,12.239855 4.7490512,11.47198 4.9244956,11.010248 l 0.05308,-0.139695 -0.075032,-0.02853 c -0.1179426,-0.04484 -0.2361421,-0.0016 -0.3912639,0.143278 l -0.1433348,0.13383 0.021781,-0.101083 c 0.1067924,-0.495603 0.5133578,-0.768478 0.9704901,-0.651366 0.3048629,0.0781 0.5415823,0.250589 0.732672,0.533866 0.1857802,0.275406 0.2547027,0.502805 0.2563862,0.845904 7.575e-4,0.154414 -0.00878,0.290876 -0.0212,0.303249 -0.036685,0.03656 -0.1291242,-0.100616 -0.3074686,-0.456262 -0.1930039,-0.384879 -0.3156895,-0.51763 -0.478383,-0.51763 -0.3047772,0 -0.4114443,0.268887 -0.4409668,1.111592 l -0.018223,0.520177 z"
     id="path125" />
  <path
     style="fill:#ffffff;stroke-width:0.0288809"
     d="m 10.399679,6.9147516 c -0.09033,-0.1073481 -0.100462,-0.3090684 -0.02932,-0.583611 0.231382,-0.8929294 1.433013,-1.8226785 2.156153,-1.6683003 0.212618,0.04539 0.366252,0.1256474 0.497165,0.259714 0.09587,0.098185 0.113918,0.1370803 0.124158,0.2676431 0.01937,0.2470148 -0.01118,0.2675938 -0.33485,0.2255264 -0.438643,-0.05701 -0.844807,0.019813 -1.202876,0.2275161 -0.340519,0.1975235 -0.717914,0.6419804 -0.953068,1.1224247 -0.06354,0.1298147 -0.130614,0.2364584 -0.149058,0.2369861 -0.01844,5.276e-4 -0.06718,-0.039027 -0.108303,-0.087899 z"
     id="path164" />
  <path
     style="fill:#ffffff;stroke-width:0.0288809"
     d="m 13.627621,10.116866 c -0.43893,-0.03377 -0.796164,-0.1879063 -0.889017,-0.3835787 -0.05738,-0.1209143 -0.05718,-0.1865882 9.94e-4,-0.3319808 0.05591,-0.1397349 0.03703,-0.1383274 0.588922,-0.043906 0.632159,0.1081546 0.914264,0.092541 1.118956,-0.061932 l 0.09369,-0.0707 -0.08791,-0.1502904 C 14.262745,8.7487715 14.014821,8.2284088 13.930066,7.976367 13.838048,7.7027264 13.779793,7.2057762 13.839734,7.2057762 c 0.0328,0 0.04565,0.026449 0.270864,0.5578483 0.224342,0.5293298 0.337714,0.7096139 0.626809,0.9967467 0.133188,0.1322836 0.266779,0.2947385 0.296868,0.3610109 0.07532,0.1658979 0.07138,0.356656 -0.01058,0.5116446 -0.0813,0.1537345 -0.376089,0.3876613 -0.54744,0.4344103 -0.185659,0.05065 -0.553934,0.0721 -0.848632,0.04943 z"
     id="path203" />
  <path
     style="fill:#ffffff;stroke-width:0.0288809"
     d="m 16.009341,13.972298 c -0.227355,-0.03478 -0.439564,-0.608668 -0.368988,-0.997868 0.03624,-0.199871 0.134959,-0.41667 0.172384,-0.378588 0.01356,0.0138 0.05815,0.161559 0.09907,0.328346 0.121674,0.495882 0.254175,0.604056 0.74204,0.605809 0.423839,0.0015 0.875793,-0.130887 1.597445,-0.468004 0.239045,-0.111669 0.531576,-0.246267 0.65007,-0.299106 0.19365,-0.08635 0.22257,-0.110078 0.285894,-0.234533 0.04576,-0.08994 0.07534,-0.206467 0.0844,-0.332532 0.01207,-0.167835 0.0038,-0.214684 -0.0615,-0.34657 -0.0415,-0.08388 -0.180473,-0.269469 -0.308838,-0.412429 -0.305801,-0.340572 -0.784318,-0.9214 -1.02506,-1.244227 -0.621146,-0.8329353 -0.966521,-1.6579278 -0.966521,-2.3087138 0,-0.1632089 0.0069,-0.1854346 0.06329,-0.2033262 0.08277,-0.026269 0.183193,0.087239 0.225545,0.2549226 0.08372,0.3314499 0.245921,0.65674 0.580991,1.1651333 0.484089,0.7344946 1.459792,1.9181731 1.894818,2.2987071 0.103533,0.09056 0.209122,0.194473 0.234642,0.230909 0.07356,0.105027 0.05055,0.343873 -0.06608,0.685916 -0.05658,0.165937 -0.10288,0.336851 -0.10288,0.379809 0,0.06885 -0.04365,0.105212 -0.368231,0.306767 -0.922542,0.572874 -1.583796,0.839084 -2.349539,0.945887 -0.289225,0.04034 -0.822608,0.05281 -1.012961,0.02369 z"
     id="path242" />
  <path
     style="fill:#ffffff;stroke-width:0.0288809"
     d="m 19.391694,9.6674643 c -0.175821,-0.09185 -0.287001,-0.2627414 -0.287001,-0.4411414 0,-0.1028101 0.0055,-0.1089466 0.125572,-0.1391717 0.06907,-0.017391 0.306249,-0.045148 0.527076,-0.061684 0.384217,-0.02877 0.684206,-0.08799 0.717344,-0.1416096 0.0085,-0.013822 -0.06128,-0.2248423 -0.155154,-0.4689346 -0.09388,-0.244092 -0.19118,-0.543978 -0.216228,-0.666413 -0.05071,-0.2478849 -0.06267,-0.6580564 -0.01788,-0.6132646 0.01522,0.015215 0.164272,0.3184745 0.331238,0.6739092 0.166965,0.3554347 0.382594,0.781706 0.479174,0.9472694 0.116645,0.1999595 0.169789,0.3193345 0.158291,0.3555612 -0.03091,0.097402 -0.316676,0.3294167 -0.542424,0.4404025 -0.430427,0.2116138 -0.852254,0.2549548 -1.120011,0.1150766 z"
     id="path281" />
  <path
     style="fill:#ffffff;stroke-width:0.0288809"
     d="m 17.876691,15.107786 c -0.02139,-0.256752 -0.0097,-0.580116 0.0222,-0.611975 0.0099,-0.0099 0.12608,-0.03646 0.258129,-0.05898 0.467159,-0.07965 0.802458,-0.212508 1.62572,-0.64415 0.301448,-0.158051 0.553203,-0.282249 0.559456,-0.275996 0.01588,0.01588 -0.150459,0.306385 -0.316428,0.552645 -0.518313,0.769062 -1.162735,1.192598 -1.929539,1.268157 l -0.198776,0.01959 z"
     id="path320" />
  <path
     style="fill:#ffffff;stroke-width:0.0288809"
     d="m 16.490975,15.388201 c -0.271711,-0.0236 -0.744701,-0.106934 -1.039711,-0.183194 -0.745769,-0.192779 -1.277703,-0.51367 -1.550461,-0.93532 -0.06075,-0.09391 -0.106457,-0.174743 -0.101573,-0.179627 0.0049,-0.0049 0.105665,0.02851 0.223958,0.07421 0.26659,0.102985 0.769416,0.216269 1.225909,0.27619 0.392164,0.05148 1.613183,0.100775 1.966704,0.0794 0.208741,-0.01262 0.236283,-0.0083 0.256497,0.03986 0.01246,0.0297 0.0291,0.232697 0.037,0.451108 l 0.01435,0.397112 -0.458576,-0.0049 c -0.252217,-0.0027 -0.510561,-0.0094 -0.574099,-0.01489 z"
     id="path359" />
  <path
     style="fill:#ffffff;stroke-width:0.0288809"
     d="m 15.538266,16.937647 c -0.313824,-0.03589 -0.718909,-0.155549 -0.905539,-0.267492 -0.201807,-0.121048 -0.51774,-0.455576 -0.769821,-0.815135 -0.111142,-0.158528 -0.302839,-0.395803 -0.425993,-0.527276 -0.290671,-0.310308 -0.291153,-0.381549 -0.0028,-0.41818 l 0.120004,-0.01525 0.09656,0.19183 c 0.06406,0.127262 0.17434,0.27081 0.327649,0.426477 0.193327,0.1963 0.275931,0.256263 0.505462,0.366917 0.150902,0.07275 0.377351,0.160264 0.503218,0.194477 0.492757,0.133939 0.644685,0.147116 1.874193,0.162554 1.321108,0.01659 1.22867,-0.0036 1.050632,0.228948 -0.116225,0.151782 -0.22362,0.225764 -0.431604,0.297321 -0.422342,0.145307 -1.416963,0.234839 -1.941928,0.174805 z"
     id="path398" />
  <metadata
     id="metadata437">
    <rdf:RDF>
      <cc:Work
         rdf:about="">
        <dc:title>Jenkins</dc:title>
      </cc:Work>
    </rdf:RDF>
  </metadata>
</svg>
