<?xml version="1.0" encoding="UTF-8" standalone="no"?>
<svg
   role="img"
   viewBox="0 0 24 24"
   version="1.1"
   id="svg6"
   sodipodi:docname="pycharm_dark.svg"
   inkscape:version="1.1.2 (b8e25be833, 2022-02-05)"
   xmlns:inkscape="http://www.inkscape.org/namespaces/inkscape"
   xmlns:sodipodi="http://sodipodi.sourceforge.net/DTD/sodipodi-0.dtd"
   xmlns="http://www.w3.org/2000/svg"
   xmlns:svg="http://www.w3.org/2000/svg"
   xmlns:rdf="http://www.w3.org/1999/02/22-rdf-syntax-ns#"
   xmlns:cc="http://creativecommons.org/ns#"
   xmlns:dc="http://purl.org/dc/elements/1.1/">
  <defs
     id="defs10" />
  <sodipodi:namedview
     id="namedview8"
     pagecolor="#505050"
     bordercolor="#eeeeee"
     borderopacity="1"
     inkscape:pageshadow="0"
     inkscape:pageopacity="0"
     inkscape:pagecheckerboard="0"
     showgrid="false"
     inkscape:zoom="22.627417"
     inkscape:cx="17.213631"
     inkscape:cy="11.932427"
     inkscape:window-width="1920"
     inkscape:window-height="1017"
     inkscape:window-x="-8"
     inkscape:window-y="-8"
     inkscape:window-maximized="1"
     inkscape:current-layer="svg6" />
  <title
     id="title2">PyCharm</title>
  <path
     d="M7.833 6.666v-.055c0-1-.667-1.5-1.778-1.5H4.389v3.055h1.723c1.111 0 1.721-.666 1.721-1.5zM0 0v24h24V0H0zm2.223 3.167h4c2.389 0 3.833 1.389 3.833 3.445v.055c0 2.278-1.778 3.5-4.001 3.5H4.389v2.945H2.223V3.167zM11.277 21h-9v-1.5h9V21zm4.779-7.777c-2.944.055-5.111-2.223-5.111-5.057C10.944 5.333 13.056 3 16.111 3c1.889 0 3 .611 3.944 1.556l-1.389 1.61c-.778-.722-1.556-1.111-2.556-1.111-1.658 0-2.873 1.375-2.887 3.084.014 1.709 1.174 3.083 2.887 3.083 1.111 0 1.833-.445 2.61-1.167l1.39 1.389c-.999 1.112-2.166 1.779-4.054 1.779z"
     id="path4" />
  <path
     style="fill:#ffffff;stroke-width:0.0441942"
     d="M 0.02209709,11.998718 V 0.02209709 H 11.998718 23.975339 V 11.998718 23.975339 H 11.998718 0.02209709 Z M 11.291611,20.240932 V 19.467534 H 6.7838057 2.2759999 v 0.773398 0.773398 h 4.5078058 4.5078053 z m 6.054602,-7.115742 c 0.932529,-0.205975 1.558264,-0.529691 2.333467,-1.207187 0.15314,-0.133839 0.316979,-0.29747 0.364085,-0.363625 l 0.08565,-0.120281 -0.686811,-0.678913 c -0.377746,-0.373402 -0.702497,-0.684489 -0.721669,-0.691304 -0.01917,-0.0068 -0.173956,0.104108 -0.343963,0.246498 -0.572815,0.479763 -1.011983,0.700039 -1.655743,0.830481 -0.426182,0.08636 -1.016358,0.065 -1.407946,-0.05096 -1.523843,-0.45122 -2.396949,-2.1766803 -1.938523,-3.8309685 0.230801,-0.8328728 0.800504,-1.5468514 1.499991,-1.8798606 0.483116,-0.2299998 0.764221,-0.2934812 1.278222,-0.2886583 0.486474,0.00456 0.896212,0.091187 1.30231,0.2753209 0.314335,0.1425262 0.876899,0.5152718 1.040501,0.6894185 0.0568,0.060462 0.127365,0.1099312 0.156808,0.1099312 0.02944,0 0.364508,-0.3615384 0.744587,-0.8034187 L 20.088231,4.5582498 19.94361,4.4075751 C 19.69331,4.1467964 19.115937,3.7362773 18.719294,3.5370714 18.30604,3.329523 17.770433,3.1530182 17.279922,3.062739 c -0.421806,-0.077634 -1.810767,-0.07528 -2.209709,0.00374 -2.148684,0.4256241 -3.720004,2.0401952 -4.066875,4.1788162 -0.319345,1.9689141 0.414339,3.8866968 1.9212,5.0218398 0.568558,0.428304 1.33357,0.754223 2.120119,0.903237 0.450029,0.08526 1.833993,0.05809 2.301556,-0.04519 z M 4.3973203,11.672207 v -1.47556 l 1.2484854,-0.02084 c 1.16087,-0.01937 1.2783624,-0.02875 1.6742207,-0.133674 C 8.1484347,9.822575 8.6727553,9.5403925 9.1548014,9.0546862 9.6705426,8.535029 9.9739528,7.8599895 10.04783,7.0678421 10.226699,5.149902 9.2997937,3.7796481 7.4909124,3.2879265 7.1231714,3.1879606 7.0633855,3.1854874 4.6514368,3.1704643 L 2.1876116,3.1551181 v 4.9963244 4.9963245 h 1.1048543 1.1048544 z"
     id="path2972" />
  <path
     style="fill:#ffffff;stroke-width:0.0441942"
     d="M 4.3973203,6.6479222 V 5.1420194 l 1.138,0.015782 c 1.0522306,0.014592 1.1565839,0.023195 1.3845746,0.1141399 0.3219919,0.1284421 0.5897283,0.3619093 0.7385128,0.6439861 0.1082055,0.2051441 0.1197669,0.2718581 0.1197669,0.691102 0,0.4017118 -0.014382,0.4932607 -0.1070786,0.6816028 C 7.5414636,7.5520212 7.2936779,7.8080139 7.046119,7.9343091 6.7126448,8.1044348 6.3390264,8.1522385 5.3364465,8.1530577 l -0.9391262,7.674e-4 z"
     id="path3011" />
  <path
     style="fill:#000000;stroke-width:0.0441942"
     d="m 2.3201941,20.240932 v -0.729204 h 4.4636116 4.4636113 v 0.729204 0.729203 H 6.7838057 2.3201941 Z"
     id="path3087" />
  <path
     style="fill:#000000;stroke-width:0.0441942"
     d="M 2.2318058,8.151424 V 3.1992756 l 2.4417281,0.015345 c 2.7763456,0.017448 2.746621,0.014026 3.5465824,0.408221 0.6445632,0.3176195 1.0164302,0.6544214 1.368991,1.2399025 0.4500817,0.7474292 0.5662527,1.983637 0.2731465,2.9066326 -0.059428,0.1871398 -0.095248,0.340559 -0.079599,0.3409311 0.015648,3.535e-4 0.00761,0.015288 -0.017864,0.033146 -0.058592,0.041074 -0.2977887,0.4523137 -0.2630879,0.4523137 0.014178,0 -0.1491253,0.1740146 -0.3628956,0.386699 C 8.7214543,9.3976995 8.3714984,9.6268825 7.844466,9.8301196 7.2166931,10.072205 6.95734,10.106903 5.6016117,10.130183 l -1.2484854,0.02144 v 1.475976 1.475976 H 3.2924659 2.2318058 Z m 4.2735238,0.00147 C 7.0523136,8.0641175 7.4720155,7.7789824 7.7047902,7.3380071 7.8114731,7.1359028 7.8223688,7.0702138 7.8223688,6.6291261 7.8223688,6.1857017 7.8114541,6.1207636 7.6981411,5.8900118 7.549487,5.5872911 7.2992485,5.3614842 6.9640892,5.2276276 6.7348801,5.1360858 6.6342552,5.1280538 5.5353203,5.1135816 L 4.3531261,5.0980129 V 6.6480161 8.1980192 L 5.2922523,8.1976657 C 5.8087717,8.1974889 6.3546565,8.177324 6.5053296,8.1528705 Z"
     id="path3126" />
  <path
     style="fill:#000000;stroke-width:0.0441942"
     d="M 15.162347,13.145872 C 14.428453,13.030924 13.524558,12.651269 12.955336,12.218881 11.682448,11.25198 10.982252,9.8093976 10.982252,8.1538251 c 0,-1.9449624 1.047191,-3.7239767 2.672293,-4.5398092 0.170947,-0.085819 0.320758,-0.1684165 0.332911,-0.1835497 0.01215,-0.015133 0.04198,-0.028202 0.06629,-0.029041 0.02431,-8.396e-4 0.208838,-0.055386 0.410068,-0.1212151 0.201231,-0.065829 0.449823,-0.1324908 0.552428,-0.148138 0.102604,-0.015647 0.20644,-0.041445 0.230747,-0.057329 0.08037,-0.052516 1.318959,-0.056549 1.701476,-0.00554 1.141491,0.1522173 2.073504,0.5667297 2.804831,1.2474473 L 20.015724,4.5609171 19.35675,5.329857 c -0.362435,0.4229169 -0.663051,0.7755126 -0.668035,0.7835462 -0.005,0.00803 -0.158024,-0.1037687 -0.34009,-0.2484493 C 17.733656,5.3762602 17.177745,5.1365533 16.473896,5.0565764 14.246195,4.8034477 12.64132,6.995485 13.393252,9.2643105 c 0.426757,1.2876655 1.568318,2.0534775 2.93559,1.9693285 0.746164,-0.04592 1.42693,-0.328736 2.048804,-0.851145 0.190534,-0.160059 0.359576,-0.278923 0.375651,-0.264142 0.01607,0.01478 0.323703,0.319614 0.683619,0.677408 l 0.654392,0.650532 -0.357833,0.341678 c -0.624332,0.596143 -1.376463,1.029921 -2.110645,1.217277 -0.164293,0.04193 -0.308659,0.08617 -0.320812,0.09833 -0.05908,0.05908 -1.811349,0.09372 -2.139672,0.0423 z"
     id="path3165" />
  <metadata
     id="metadata3204">
    <rdf:RDF>
      <cc:Work
         rdf:about="">
        <dc:title>PyCharm</dc:title>
      </cc:Work>
    </rdf:RDF>
  </metadata>
</svg>
