<?xml version="1.0" encoding="UTF-8" standalone="no"?>
<svg
   role="img"
   viewBox="0 0 24 24"
   version="1.1"
   id="svg6"
   sodipodi:docname="python_dark.svg"
   inkscape:version="1.1.2 (b8e25be833, 2022-02-05)"
   xmlns:inkscape="http://www.inkscape.org/namespaces/inkscape"
   xmlns:sodipodi="http://sodipodi.sourceforge.net/DTD/sodipodi-0.dtd"
   xmlns="http://www.w3.org/2000/svg"
   xmlns:svg="http://www.w3.org/2000/svg">
  <defs
     id="defs10" />
  <sodipodi:namedview
     id="namedview8"
     pagecolor="#505050"
     bordercolor="#eeeeee"
     borderopacity="1"
     inkscape:pageshadow="0"
     inkscape:pageopacity="0"
     inkscape:pagecheckerboard="0"
     showgrid="false"
     inkscape:zoom="5.6568543"
     inkscape:cx="48.171649"
     inkscape:cy="20.32932"
     inkscape:window-width="1920"
     inkscape:window-height="1017"
     inkscape:window-x="-8"
     inkscape:window-y="-8"
     inkscape:window-maximized="1"
     inkscape:current-layer="svg6" />
  <title
     id="title2">Python</title>
  <path
     d="M14.25.18l.9.2.73.26.59.3.45.32.34.34.25.34.16.33.1.3.04.26.02.2-.01.13V8.5l-.05.63-.13.55-.21.46-.26.38-.3.31-.33.25-.35.19-.35.14-.33.1-.3.07-.26.04-.21.02H8.77l-.69.05-.59.14-.5.22-.41.27-.33.32-.27.35-.2.36-.15.37-.1.35-.07.32-.04.27-.02.21v3.06H3.17l-.21-.03-.28-.07-.32-.12-.35-.18-.36-.26-.36-.36-.35-.46-.32-.59-.28-.73-.21-.88-.14-1.05-.05-1.23.06-1.22.16-1.04.24-.87.32-.71.36-.57.4-.44.42-.33.42-.24.4-.16.36-.1.32-.05.24-.01h.16l.06.01h8.16v-.83H6.18l-.01-2.75-.02-.37.05-.34.11-.31.17-.28.25-.26.31-.23.38-.2.44-.18.51-.15.58-.12.64-.1.71-.06.77-.04.84-.02 1.27.05zm-6.3 1.98l-.23.33-.08.41.08.41.23.34.33.22.41.09.41-.09.33-.22.23-.34.08-.41-.08-.41-.23-.33-.33-.22-.41-.09-.41.09zm13.09 3.95l.28.06.32.12.35.18.36.27.36.35.35.47.32.59.28.73.21.88.14 1.04.05 1.23-.06 1.23-.16 1.04-.24.86-.32.71-.36.57-.4.45-.42.33-.42.24-.4.16-.36.09-.32.05-.24.02-.16-.01h-8.22v.82h5.84l.01 2.76.02.36-.05.34-.11.31-.17.29-.25.25-.31.24-.38.2-.44.17-.51.15-.58.13-.64.09-.71.07-.77.04-.84.01-1.27-.04-1.07-.14-.9-.2-.73-.25-.59-.3-.45-.33-.34-.34-.25-.34-.16-.33-.1-.3-.04-.25-.02-.2.01-.13v-5.34l.05-.64.13-.54.21-.46.26-.38.3-.32.33-.24.35-.2.35-.14.33-.1.3-.06.26-.04.21-.02.13-.01h5.84l.69-.05.59-.14.5-.21.41-.28.33-.32.27-.35.2-.36.15-.36.1-.35.07-.32.04-.28.02-.21V6.07h2.09l.14.01zm-6.47 14.25l-.23.33-.08.41.08.41.23.33.33.23.41.08.41-.08.33-.23.23-.33.08-.41-.08-.41-.23-.33-.33-.23-.41-.08-.41.08z"
     id="path4" />
  <path
     style="fill:#ffffff;stroke-width:0.03125"
     d="M 2.796875,17.857565 C 2.4953646,17.779262 2.0301198,17.554884 1.8030097,17.378246 0.84406781,16.632416 0.28886006,15.448707 0.04258448,13.625 -0.02090354,13.154862 -0.02908202,12.967931 -0.02851149,12 c 6.115e-4,-1.037451 0.0051041,-1.122704 0.08727953,-1.65625 C 0.40968278,8.0653419 1.3241213,6.7941369 2.953125,6.3201659 L 3.1875,6.2519728 7.6015625,6.2425462 12.015625,6.2331197 V 5.8276584 5.4221972 L 9.1015625,5.4142234 6.1875,5.40625 6.171875,3.828125 C 6.1604234,2.6715292 6.1663328,2.1933077 6.1939981,2.0377547 6.3622728,1.0916017 7.3284428,0.48915919 9.1564403,0.19056271 9.9612297,0.05910344 10.434763,0.03113665 11.828125,0.03277348 c 1.150587,0.0013516 1.358563,0.0093735 1.84375,0.07111586 2.301117,0.29282775 3.628532,1.06476486 4.066589,2.36486066 l 0.07371,0.21875 0.0097,2.828125 c 0.01214,3.5239537 -0.0059,3.7885925 -0.301253,4.4185469 -0.406835,0.8677481 -1.075327,1.3555411 -2.239408,1.6340761 -0.195106,0.04668 -0.590301,0.05433 -3.65625,0.07074 l -3.4375,0.0184 -0.359375,0.08963 c -1.3733688,0.342521 -2.1565125,1.265064 -2.3900584,2.815489 -0.03699,0.245564 -0.047112,0.638812 -0.047257,1.835937 l -1.844e-4,1.523438 -1.1796875,-0.0017 C 3.1462872,17.9186 3.0083949,17.912497 2.796875,17.857564 Z M 8.93076,3.9077062 C 9.8048187,3.6988509 10.01032,2.5316331 9.2587019,2.0450403 8.8991878,1.8122931 8.4943919,1.8143697 8.125,2.0508563 7.7580012,2.2858108 7.5888603,2.6970136 7.6826503,3.1262641 c 0.082063,0.3755825 0.4033091,0.7020525 0.7700953,0.7826196 0.2268666,0.049833 0.2649288,0.049739 0.4780144,-0.00118 z"
     id="path870" />
  <path
     style="fill:#ffffff;stroke-width:0.03125"
     d="M 10.953125,23.964754 C 10.858594,23.958235 10.55625,23.92403 10.28125,23.888743 8.0093852,23.59723 6.6986333,22.828496 6.2615362,21.53125 L 6.18783,21.3125 6.1780618,18.484375 c -0.010151,-2.938894 0.0036,-3.396527 0.1166664,-3.881418 C 6.4488455,13.94199 6.8518646,13.348111 7.3910336,12.987466 7.8201522,12.700434 8.1303736,12.57238 8.703125,12.44586 8.9913288,12.3822 9.0994904,12.37972 12.40625,12.36105 l 3.40625,-0.01923 0.348197,-0.08472 c 0.191509,-0.0466 0.461787,-0.133339 0.600619,-0.192762 0.836391,-0.35799 1.431655,-1.086794 1.69263,-2.0723518 0.137115,-0.5178063 0.154252,-0.7825607 0.154856,-2.3923956 l 5.73e-4,-1.5254034 1.226562,0.011521 c 1.382342,0.012984 1.380575,0.012742 1.894772,0.259353 0.336669,0.1614674 0.461038,0.2505895 0.779443,0.558544 0.759363,0.7344405 1.230723,1.8648375 1.44752,3.4713888 0.06379,0.472673 0.07152,0.653572 0.07016,1.640625 -0.0015,1.050625 -0.0061,1.138336 -0.08704,1.65625 -0.364259,2.329726 -1.388426,3.698978 -3.014621,4.030375 -0.303547,0.06186 -0.414196,0.06338 -4.626388,0.06338 h -4.315404 v 0.406089 0.406089 l 2.914062,0.008 2.914063,0.008 0.01563,1.578125 c 0.01749,1.766814 0.0099,1.864498 -0.174662,2.237961 -0.125647,0.25429 -0.359303,0.497802 -0.685324,0.714231 -0.543425,0.360753 -1.536799,0.639459 -2.796264,0.784535 -0.402361,0.04635 -2.763623,0.08754 -3.21875,0.05615 z m 4.598683,-1.859356 c 0.225411,-0.04834 0.458911,-0.211874 0.608768,-0.42635 0.424859,-0.60806 0.06324,-1.471704 -0.668205,-1.595863 -0.550113,-0.09338 -1.087275,0.270038 -1.192932,0.807077 -0.125349,0.637139 0.343383,1.219419 1.00371,1.246856 0.04642,0.0019 0.158316,-0.01234 0.248659,-0.03172 z"
     id="path909" />
  <path
     style="fill:#ffffff;stroke-width:0.00390625"
     d="m 20.283203,17.775196 c -0.02041,-0.0016 -1.194189,-0.003 -2.608398,-0.0033 l -2.571289,-4.38e-4 v -0.996093 -0.996094 h 4.107421 c 2.259083,0 4.107443,0.0013 4.107468,0.0029 3.9e-5,0.0016 -0.0083,0.02139 -0.01848,0.04394 -0.02803,0.06207 -0.371361,0.60475 -0.408998,0.646475 -0.01551,0.01719 -0.06749,0.07608 -0.115517,0.130869 -0.04803,0.05479 -0.104234,0.118066 -0.124904,0.140625 -0.02067,0.02256 -0.05859,0.06461 -0.08428,0.09345 -0.03405,0.03823 -0.06199,0.06459 -0.10314,0.09731 -0.03104,0.02468 -0.08378,0.06761 -0.117187,0.09539 -0.08874,0.07379 -0.23672,0.18371 -0.295121,0.219217 -0.122398,0.07442 -0.168,0.100995 -0.228515,0.133183 -0.03545,0.01886 -0.08291,0.04453 -0.105469,0.05704 -0.02583,0.01433 -0.113645,0.05176 -0.237134,0.101061 l -0.196118,0.0783 -0.186694,0.04644 c -0.174738,0.04347 -0.196577,0.04798 -0.340992,0.07038 -0.105501,0.01637 -0.190031,0.02701 -0.267292,0.03366 -0.115349,0.0099 -0.140196,0.01059 -0.205364,0.0056 z"
     id="path987" />
</svg>
