<?xml version="1.0" encoding="UTF-8" standalone="no"?>
<svg
   width="24"
   height="24"
   viewBox="0 0 24 24"
   version="1.1"
   id="svg19"
   sodipodi:docname="twitter_dark.svg"
   inkscape:version="1.1.2 (b8e25be833, 2022-02-05)"
   xmlns:inkscape="http://www.inkscape.org/namespaces/inkscape"
   xmlns:sodipodi="http://sodipodi.sourceforge.net/DTD/sodipodi-0.dtd"
   xmlns="http://www.w3.org/2000/svg"
   xmlns:svg="http://www.w3.org/2000/svg">
  <defs
     id="defs23" />
  <sodipodi:namedview
     id="namedview21"
     pagecolor="#505050"
     bordercolor="#eeeeee"
     borderopacity="1"
     inkscape:pageshadow="0"
     inkscape:pageopacity="0"
     inkscape:pagecheckerboard="0"
     showgrid="false"
     inkscape:zoom="33.666667"
     inkscape:cx="11.985149"
     inkscape:cy="12"
     inkscape:window-width="1920"
     inkscape:window-height="1017"
     inkscape:window-x="-8"
     inkscape:window-y="-8"
     inkscape:window-maximized="1"
     inkscape:current-layer="svg19" />
  <path
     d="M12 2c5.514 0 10 4.486 10 10s-4.486 10-10 10-10-4.486-10-10 4.486-10 10-10zm0-2c-6.627 0-12 5.373-12 12s5.373 12 12 12 12-5.373 12-12-5.373-12-12-12zm6.5 8.778c-.441.196-.916.328-1.414.388.509-.305.898-.787 1.083-1.362-.476.282-1.003.487-1.564.597-.448-.479-1.089-.778-1.796-.778-1.59 0-2.758 1.483-2.399 3.023-2.045-.103-3.86-1.083-5.074-2.572-.645 1.106-.334 2.554.762 3.287-.403-.013-.782-.124-1.114-.308-.027 1.14.791 2.207 1.975 2.445-.346.094-.726.116-1.112.042.313.978 1.224 1.689 2.3 1.709-1.037.812-2.34 1.175-3.647 1.021 1.09.699 2.383 1.106 3.773 1.106 4.572 0 7.154-3.861 6.998-7.324.482-.346.899-.78 1.229-1.274z"
     id="path17" />
  <path
     style="fill:#ffffff;stroke-width:0.029703"
     d="M 11.539604,21.977082 C 10.450291,21.902349 9.6502408,21.746222 8.7355773,21.429884 5.3269791,20.251016 2.7788498,17.260678 2.1681872,13.722772 2.0530316,13.055612 2.0257856,12.72599 2.0257856,12 c 0,-0.699148 0.026442,-1.036961 0.1301984,-1.663366 C 2.403946,8.8396197 3.0523709,7.3148825 3.9621499,6.0895295 5.5185318,3.9932864 7.8119611,2.5782464 10.336634,2.1564889 10.959085,2.0525057 11.299133,2.0257856 12,2.0257856 c 0.700086,0 1.03913,0.026595 1.663366,0.1304737 1.508949,0.2511045 3.016217,0.8920027 4.247104,1.8058906 2.297857,1.7060724 3.73044,4.2207648 4.029103,7.0725031 0.01968,0.187872 0.03577,0.622278 0.03577,0.965347 0,0.898728 -0.08323,1.589186 -0.291803,2.420792 -0.561342,2.238118 -1.897201,4.226971 -3.773074,5.617425 -1.410226,1.045303 -3.15707,1.720775 -4.900569,1.894961 -0.340433,0.03401 -1.228125,0.06052 -1.470297,0.0439 z m -0.133663,-4.671785 c 1.269538,-0.193474 2.409475,-0.704552 3.37302,-1.512258 1.235669,-1.035817 2.120454,-2.59979 2.406292,-4.253435 0.06694,-0.387288 0.129652,-1.20855 0.104532,-1.36902 -0.01569,-0.100262 -0.0083,-0.112661 0.123989,-0.2072273 0.234055,-0.1673435 0.655902,-0.5900599 0.88727,-0.8890993 0.120078,-0.155198 0.206769,-0.2860624 0.192646,-0.2908096 -0.01412,-0.00475 -0.124297,0.030201 -0.244832,0.077663 -0.227556,0.089603 -0.714869,0.2229573 -0.946878,0.2591159 l -0.133663,0.020831 0.207921,-0.1640486 c 0.314861,-0.2484244 0.551623,-0.558709 0.717527,-0.9403458 0.05318,-0.1223412 0.09261,-0.226522 0.08762,-0.2315127 -0.005,-0.00499 -0.174825,0.070292 -0.37741,0.1672942 C 17.447721,8.1430281 17.136298,8.2574101 16.7979,8.3419646 L 16.635412,8.3825664 16.410357,8.1993811 C 16.115444,7.9593345 15.9211,7.850795 15.578588,7.7348453 15.333919,7.6520183 15.246439,7.637806 14.910891,7.6263701 c -0.433,-0.014758 -0.675277,0.023032 -1.012431,0.1579147 -0.345846,0.13836 -0.550253,0.2771949 -0.845192,0.5740618 C 12.824429,8.588681 12.74352,8.6950051 12.632799,8.9108911 12.395556,9.373473 12.356436,9.5448119 12.356436,10.121294 v 0.497531 l -0.118812,-5.5e-4 C 12.049199,10.617402 11.52311,10.53577 11.183192,10.454663 9.8035063,10.125455 8.6678489,9.4673626 7.6672078,8.4172155 L 7.325528,8.0586312 7.2352975,8.2373765 c -0.1430507,0.2833821 -0.2135614,0.574773 -0.231679,0.9574304 -0.03556,0.7510598 0.2278096,1.4050281 0.7738497,1.9215311 0.2146616,0.20305 0.2228394,0.215346 0.1432144,0.215346 -0.1363176,0 -0.5390792,-0.113027 -0.7433243,-0.2086 -0.1039381,-0.04864 -0.1960827,-0.08843 -0.2047657,-0.08843 -0.026455,0 0.020557,0.448165 0.068546,0.653466 0.1106451,0.47334 0.4827615,1.041334 0.8818156,1.345993 0.2278491,0.173953 0.648687,0.393084 0.8147367,0.424235 0.289415,0.05429 -0.1208694,0.118079 -0.6016797,0.09354 l -0.3042963,-0.01553 0.041363,0.117234 c 0.139214,0.394574 0.4530588,0.82036 0.7984996,1.083306 0.3739518,0.284647 0.7249916,0.432361 1.1880885,0.499935 l 0.239344,0.03492 -0.3036221,0.199954 c -0.5499481,0.362174 -1.1348792,0.598456 -1.8214951,0.735787 -0.28254,0.05651 -0.437182,0.06819 -0.9120137,0.06889 -0.3144811,4.64e-4 -0.5717831,0.0027 -0.5717822,0.0049 6e-6,0.01401 0.4470829,0.26436 0.6830968,0.382514 0.7179802,0.359439 1.5914625,0.610571 2.4208654,0.696017 0.4115609,0.0424 1.3640319,0.01375 1.8118819,-0.0545 z"
     id="path179" />
</svg>
