<?xml version="1.0" encoding="UTF-8" standalone="no"?>
<svg
   width="24"
   height="24"
   viewBox="0 0 24 24"
   version="1.1"
   id="svg233"
   sodipodi:docname="twitch_dark.svg"
   inkscape:version="1.1.2 (b8e25be833, 2022-02-05)"
   xmlns:inkscape="http://www.inkscape.org/namespaces/inkscape"
   xmlns:sodipodi="http://sodipodi.sourceforge.net/DTD/sodipodi-0.dtd"
   xmlns="http://www.w3.org/2000/svg"
   xmlns:svg="http://www.w3.org/2000/svg">
  <defs
     id="defs237" />
  <sodipodi:namedview
     id="namedview235"
     pagecolor="#505050"
     bordercolor="#eeeeee"
     borderopacity="1"
     inkscape:pageshadow="0"
     inkscape:pageopacity="0"
     inkscape:pagecheckerboard="0"
     showgrid="false"
     inkscape:zoom="34.625"
     inkscape:cx="12"
     inkscape:cy="11.98556"
     inkscape:window-width="1920"
     inkscape:window-height="1017"
     inkscape:window-x="-8"
     inkscape:window-y="-8"
     inkscape:window-maximized="1"
     inkscape:current-layer="svg233" />
  <path
     d="M12 2c5.514 0 10 4.486 10 10s-4.486 10-10 10-10-4.486-10-10 4.486-10 10-10zm0-2c-6.627 0-12 5.373-12 12s5.373 12 12 12 12-5.373 12-12-5.373-12-12-12zm-4.925 7l-.806 2.06v8.418h2.866v1.522h1.612l1.522-1.522h2.328l3.134-3.134v-7.344h-10.656zm9.582 6.806l-1.791 1.791h-2.866l-1.522 1.522v-1.522h-2.418v-7.522h8.597v5.731zm-1.791-3.672v3.131h-1.075v-3.131h1.075zm-2.866 0v3.131h-1.075v-3.131h1.075z"
     id="path231" />
  <path
     style="fill:#ffffff;stroke-width:0.0288809"
     d="M 10.498195,16.324702 V 15.581227 H 9.2851986 8.0722022 V 11.841155 8.101083 h 4.2888088 4.288808 v 2.837376 2.837376 l -0.902355,0.902696 -0.902355,0.902696 h -1.42957 -1.429571 l -0.743886,0.743475 -0.743887,0.743474 z M 12,11.696751 v -1.574007 h -0.548736 -0.548737 v 1.574007 1.574007 H 11.451264 12 Z m 2.888087,0 V 10.122744 H 14.33935 13.790614 v 1.574007 1.574007 h 0.548736 0.548737 z"
     id="path313" />
  <path
     style="fill:#ffffff;stroke-width:0.0288809"
     d="M 11.494585,21.97354 C 10.23911,21.896788 9.0907775,21.62306 7.9838773,21.136694 4.9447053,19.8013 2.719511,16.963343 2.1673389,13.718427 2.0561365,13.06493 2.0250151,12.689476 2.0248988,12 2.0246566,10.564857 2.292502,9.2774856 2.858292,7.9943806 3.3659608,6.8430833 4.0411721,5.8613409 4.9512566,4.9512566 6.2583261,3.6441871 7.821976,2.7544355 9.5884477,2.3125916 10.398916,2.1098709 11.111832,2.0247891 12,2.0247891 c 1.142938,0 2.097987,0.15256 3.153634,0.503763 1.462669,0.4866151 2.781709,1.3069533 3.894708,2.4221991 1.664839,1.668199 2.623867,3.6852243 2.891662,6.0817398 0.05254,0.470185 0.04433,1.560557 -0.01555,2.064982 -0.228035,1.920989 -0.945377,3.646745 -2.134871,5.135997 -0.374115,0.468394 -1.08772,1.181999 -1.556114,1.556114 -1.424256,1.13758 -3.096421,1.857831 -4.876069,2.100268 -0.624565,0.08508 -1.325158,0.116558 -1.862816,0.08369 z m 0.01444,-3.720832 0.764935,-0.765343 h 1.16978 1.169781 l 1.566886,-1.566688 1.566885,-1.566688 V 10.664359 6.9747292 H 12.406407 7.065522 L 7.0082105,7.1263538 C 6.9766891,7.2097473 6.7938059,7.6786394 6.6018033,8.1683365 L 6.2527076,9.0586949 v 4.2143351 4.214335 h 1.4296029 1.4296029 v 0.765343 0.765343 h 0.8160889 0.8160887 z"
     id="path352" />
</svg>
